/* XPM */
static char *_0ea370bb3bb460cdd5c4a7991e28573fsWduLKZDYni0UHd[] = {
/* columns rows colors chars-per-pixel */
"50 50 112 2 ",
"   c #006732",
".  c #086F3C",
"X  c #0C713F",
"o  c #0F7341",
"O  c #157646",
"+  c #177748",
"@  c #177848",
"#  c #1B7A4B",
"$  c #217D4F",
"%  c #247F52",
"&  c #268054",
"*  c #298256",
"=  c #2C8459",
"-  c #30865C",
";  c #35895F",
":  c #378A61",
">  c #3A8C64",
",  c #408F68",
"<  c #43916A",
"1  c #48946F",
"2  c #4B9671",
"3  c #4F9874",
"4  c #539A77",
"5  c #579D7A",
"6  c #599E7C",
"7  c #5DA07F",
"8  c #5FA281",
"9  c #63A484",
"0  c #68A687",
"q  c #68A788",
"w  c #6CA98B",
"e  c #71AC8F",
"r  c #74AE92",
"t  c #77B094",
"y  c #79B195",
"u  c #7EB499",
"i  c #83B79D",
"p  c #85B89F",
"a  c #87B9A0",
"s  c #8DBDA5",
"d  c #90BEA8",
"f  c #95C1AC",
"g  c #99C3AE",
"h  c #9CC5B1",
"j  c #A2C9B5",
"k  c #A7CCBA",
"l  c #ACCFBE",
"z  c #B4D3C4",
"x  c #BAD7C8",
"c  c #BED9CC",
"v  c #C3DCCF",
"b  c #C8DFD4",
"n  c #CDE2D7",
"m  c #CFE3D9",
"M  c #CEE3D9",
"N  c #D0E4DA",
"B  c #D2E5DB",
"V  c #D2E5DC",
"C  c #D4E6DD",
"Z  c #D5E6DE",
"A  c #D5E7DE",
"S  c #D6E7DE",
"D  c #D7E8DF",
"F  c #D7E8E0",
"G  c #D8E8E0",
"H  c #D9E9E1",
"J  c #DAE9E2",
"K  c #DCEBE4",
"L  c #DDEBE4",
"P  c #DEEBE5",
"I  c #DEECE5",
"U  c #DFEDE6",
"Y  c #E0EDE6",
"T  c #E4EFEA",
"R  c #E4F0EA",
"E  c #E5F0EA",
"W  c #E5F0EB",
"Q  c #E7F1EC",
"!  c #E8F1ED",
"~  c #E9F2ED",
"^  c #E9F2EE",
"/  c #EAF2EE",
"(  c #EAF3EE",
")  c #EBF3EF",
"_  c #EDF5F1",
"`  c #EEF5F1",
"'  c #EEF5F2",
"]  c #EFF6F3",
"[  c #F0F6F3",
"{  c #F1F7F4",
"}  c #F2F7F5",
"|  c #F3F8F5",
" . c #F5F9F7",
".. c #F7FBF9",
"X. c #F8FBFA",
"o. c #F9FBFA",
"O. c #F9FCFA",
"+. c #F9FCFB",
"@. c #FAFCFB",
"#. c #FBFCFB",
"$. c #FBFCFC",
"%. c #FBFDFC",
"&. c #FCFDFC",
"*. c #FCFDFD",
"=. c #FCFEFD",
"-. c #FDFEFD",
";. c #FDFEFE",
":. c #FEFEFE",
">. c #FEFFFE",
",. c #FEFFFF",
"<. c white",
"1. c #FFFFFF",
/* pixels */
"<.<.<.<.<.<.<.<.<.<.<.<.<.<.<.<.<.<.<.<.<.<.<.<.<.<.<.<.<.<.<.<.<.<.<.<.<.<.<.<.<.<.<.<.<.<.<.<.<.<.",
"<.<.<.<.<.<.<.<.<.<.<.<.<.<.<.<.<.<.<.<.<.<.<.<.<.<.<.<.<.<.<.<.<.<.<.<.<.<.<.<.<.<.<.<.<.<.<.<.<.<.",
"<.<.u 3 6 5 5 5 5 5 5 5 5 5 5 5 5 5 5 5 5 5 5 5 5 5 5 5 5 5 5 5 5 5 5 5 5 5 5 5 5 5 5 5 5 6 4 0 ..<.",
"<.<.3 o # @ @ @ @ @ @ @ # # # # # # # # # # # # # # # # # # # # # # @ # # # # @ @ @ @ @ @ @ + =  .<.",
"<.<.6 # * & & & & & & # + @ @ @ @ @ @ @ @ @ @ @ @ @ @ @ @ @ @ @ @ @ @ @ @ + @ & & & & & & * % >  .<.",
"<.<.5 @ & % % % % & @ r z k k k k k k k k k k k k k k k k k k k k k k k k l d % % % % % % & # :  .<.",
"<.<.5 @ & % % % % & + z <.<.<.<.<.<.<.<.<.<.<.<.<.<.<.<.<.<.<.<.<.<.<.<.<.<.R % % % % % % & # :  .<.",
"<.<.5 @ & % % % % & + k <.X.<.<.<.<.<.O.O.%.X.O.O.<.<.<.<.<.<.<.<.<.<.<.O.<.C % % % % % % & # :  .<.",
"<.<.5 @ & % % % % & + l <.<.<.<.<.<.<.<.<.<.<.<.<.<.<.<.<.<.<.<.<.<.<.<.<.<.J % % % % % % & # :  .<.",
"<.<.5 @ & % % % % & + l <.<.<.<.<.<.<.n 9 2 r R <.<.<.<.<.<.<.<.<.<.<.<.<.<.J % % % % % % & # :  .<.",
"<.<.5 @ & % % % % & + l <.<.<.<.<.<.m # + # O : ' <.<.<.<.<.<.<.<.<.<.<.<.<.J % % % % % % & # :  .<.",
"<.<.5 @ & % % % % & + l <.<.<.<.<.<.q + * & = O g <.%.<.<.<.<.<.<.<.<.<.<.<.J % % % % % % & # :  .<.",
"<.<.5 @ & % % % % & + l <.<.<.<.<.<.4 # & % * + u <.%.<.<.<.<.<.<.<.<.<.<.<.J % % % % % % & # :  .<.",
"<.<.5 @ & % % % % & + l <.<.<.<.<.<.y o = * * o l <.<.<.<.<.<.<.<.<.<.<.<.<.J % % % % % % & # :  .<.",
"<.<.5 @ & % % % % & + l <.<.<.<.<.<.( > o O X 7 <.<.%.<.<.<.<.%.<.<.<.<.<.<.J % % % % % % & # :  .<.",
"<.<.5 @ & % % % % & + l <.<.<.<.<.<.<.' j s x <.<.<.<.<.<.<.<.<.<.<.<.<.<.<.J % % % % % % & # :  .<.",
"<.<.5 @ & % % % % & + l <.<.<.<.<.<.O.<.Y p p t r y t t y y y y z <.<.<.<.<.J % % % % % % & # :  .<.",
"<.<.5 @ & % % % % & + l <.<.<.<.<.<.<.P & o O + + + + + @ @ @ + o z <.%.<.<.J % % % % % % & $ :  .<.",
"<.<.5 @ & % % % % & + l <.<.<.<.<.<...< @ * & & & & * % + @ + & % :  .<.<.<.J % % % % % % & # :  .<.",
"<.<.5 @ & % % % % & + l <.<.<.<.<.<.8 + * % % % % & # < s a s : % + p <.O.<.J % % % % % % & # :  .<.",
"<.<.5 @ & % % % % & + l <.X.%.<.<.i O * # % % % % & # : <.<.<.l + * % F <.<.J % % % % % % & # :  .<.",
"<.<.5 @ & % % % % & + z <.<.<.<.j + * $ > % % % % % * O s <...<.4 # @ 6 <.<.J % % % % % % & # :  .<.",
"<.<.5 @ & % % % % & # 7 p y r w % & O r ( * % % % % & # :  .<.<.b @ = @ z <.C % % % % % % & # :  .<.",
"<.<.5 @ & % % % % % % # @ @ @ @ * @ 3 %.<.y + * % % % * + j <.X.<.w X X j <.C % % % % % % & # :  .<.",
"<.<.5 @ & % % % % % % # + @ @ @ o : ' <.<.U & % % % % & # < <.<.<.{ r a O.<.J % % % % % % & # :  .<.",
"<.<.5 @ & % % % % & # w h f f f f T <.<.<.<.r + & % % % & + z <.%.<.<.<.<.<.J % % % % % % & # :  .<.",
"<.<.5 @ & % % % % & + z <.<.<.<.<.<.<.<.<.<.J % % % & % & + y <.<.<.<.<.<.<.J % % % % % % & # :  .<.",
"<.<.5 @ & % % % % & + l <.X.%.%.%.<.<.<.<.<.m $ % & % % & @ 9 <.<.<.<.<.<.<.J % % % % % % & # :  .<.",
"<.<.5 @ & % % % % & + l <.<.<.<.<.<.<.<.<.<.9 + * # > - % @ 4 <.<.<.<.<.<.<.J % % % % % % & # :  .<.",
"<.<.5 @ & % % % % & + l <.<.<.<.<.<.<.<.<.m # & & @ k < # # 2 <.<.<.<.<.<.<.J % % % % % % & # :  .<.",
"<.<.5 @ & % % % % & + l <.<.<.<.<.<.<.<.<.0 + * @ 3 %.> # # , O.<.<.<.<.<.<.J % % % % % % & # :  .<.",
"<.<.5 @ & % % % % & + l <.<.<.<.<.<.<.<.N # & & + z <.< # % : | <.<.<.<.<.<.C @ & & % % % & # :  .<.",
"<.<.5 @ & % % % % & + l <.<.<.<.<.<.<.<.0 + * @ 2 <.<.2 # % - { <.<.<.<.<.<.Q < @ @ & % % & # :  .<.",
"<.<.5 @ & % % % % & + l <.<.<.<.<.<.<.N # & & + z <.<.5 @ & & m | ( ( ( Q R R | P 6 + & % & # :  .<.",
"<.<.5 @ & % % % % & + l <.<.<.<.<.<.<.w + * @ 2 <.<.<.9 @ & % = - = = = = * * : f <.e + & & # :  .<.",
"<.<.5 @ & % % % % & + l <.<.<.<.<.<.C # % * + z <.X.<.q @ * * & % % & & & & & % X e <.> # & # :  .<.",
"<.<.5 @ & % % % % & + l <.<.<.<.<.<.w + * @ 2 <.<.%.<.h o + + + + + + + + + + O +   v g O * $ :  .<.",
"<.<.5 @ & % % % % & + l <.<.<.<.<.C $ % * + z <.<.<.<.<.c h h h h g g g g f g k k h ( x O * $ :  .<.",
"<.<.5 @ & % % % % & + l <.<.<.<.<.w + * # 1 <.<.<.<.<.<.<.<.<.<.<.<.<.<.<.<.<.z z z z e # & # :  .<.",
"<.<.5 @ & % % % % & + l <.O.<.<.D % % * + z <.<.<.<.<.<.<.%.%.%.%.%.%.%.O.<.V o O O O @ & & # :  .<.",
"<.<.5 @ & % % % % & + l <.<.<.<.e @ = # 1 <.<.<.<.<.<.<.<.<.<.<.<.<.<.<.<.<.J & & * * & % & # :  .<.",
"<.<.5 @ & % % % % & + l <.O.<.N + @ @ O c <.<.<.<.<.<.<.<.<.<.<.<.<.<.<.<.<.J % % % % % % & # :  .<.",
"<.<.5 @ & % % % % & + l <.O.<.s 1 5 5 z <.%.<.<.<.<.<.<.<.<.<.<.<.<.<.<.<.<.J % % % % % % & # :  .<.",
"<.<.5 @ & % % % % & + z <.%.<.<.C C U U O.<.<.<.<.<.<.<.<.<.<.<.<.<.<.<.<.<.C # & % % % % & # :  .<.",
"<.<.5 @ & % % % % & @ u <.<.<.<.k + # @ 6 %.<.%.<.<.<.<.<.<.<.<.<.<.<.<.<.<.{ < @ * % % % & $ :  .<.",
"<.<.6 # * & & & & & * @ a <.<.<.<.x % & @ 4 O.<.<.<.<.<.<.<.<.<.<.<.<.<.<.<.<.[ 1 # * & & * % >  .<.",
"<.<.3 o # @ @ @ @ @ @ # . y { ( Q <.k @ # X < P ' ( ( ( ( ( ( ( ( ( ( ( ( ( (  .J ; + @ @ @ + =  .<.",
"<.<.u 3 6 5 5 5 5 5 5 6 6 3 w w w w r 8 5 6 3 9 w w w w w w w w w w w w w w w w r q 4 6 5 6 4 0 ..<.",
"<.<.<.<.<.<.<.<.<.<.<.<.<.<.<.<.<.<.<.<.<.<.<.<.<.<.<.<.<.<.<.<.<.<.<.<.<.<.<.<.<.<.<.<.<.<.<.<.<.<.",
"<.<.<.<.<.<.<.<.<.<.<.<.<.<.<.<.<.<.<.<.<.<.<.<.<.<.<.<.<.<.<.<.<.<.<.<.<.<.<.<.<.<.<.<.<.<.<.<.<.<."
};
