/* XPM */
static char *a8e5272892ff47a1fc2db0a6af60d4ecLlRJRM2eJjuqbG65[] = {
/* columns rows colors chars-per-pixel */
"50 50 256 2 ",
"   c None",
".  c #0B1E3F",
"X  c #12243F",
"o  c #162740",
"O  c #1B2B40",
"+  c #253341",
"@  c #2E3A42",
"#  c #384144",
"$  c #484E45",
"%  c #565947",
"&  c #5F6048",
"*  c #636348",
"=  c #76724A",
"-  c #857E4C",
";  c #678261",
":  c #6FA57C",
">  c #88804C",
",  c #8C844C",
"<  c #978C4E",
"1  c #9B904E",
"2  c #A3964F",
"3  c #AA9B50",
"4  c #AE9E50",
"5  c #AE9F50",
"6  c #8FBE7E",
"7  c #93BF7C",
"8  c #90BD7E",
"9  c #AABA6B",
"0  c #B0BC68",
"q  c #C9B353",
"w  c #9FC378",
"e  c #9FC279",
"r  c #BFCC6E",
"t  c #AFC773",
"y  c #A3C378",
"u  c #B1C773",
"i  c #B4C872",
"p  c #BAC970",
"a  c #E0C655",
"s  c #EACD56",
"d  c #EBCF57",
"f  c #EFD257",
"g  c #EFD95E",
"h  c #F1D357",
"j  c #F3DA5C",
"k  c #F3DA5D",
"l  c #F9D958",
"z  c #FBDB58",
"x  c #FBDC5A",
"c  c #FBDD5A",
"v  c #FFDE59",
"b  c #C8CE6B",
"n  c #CECF69",
"m  c #CFD068",
"M  c #D7D266",
"N  c #DDD464",
"B  c #E3D662",
"V  c #E8D760",
"C  c #118B9E",
"Z  c #188C9E",
"A  c #198C9E",
"S  c #238F9F",
"D  c #2FA39D",
"F  c #30A19F",
"G  c #33A49C",
"H  c #3FA599",
"J  c #3CA699",
"K  c #068FA4",
"L  c #078FA4",
"P  c #088FA4",
"I  c #118FA2",
"U  c #0490A5",
"Y  c #0490A6",
"T  c #0491A7",
"R  c #0791A6",
"E  c #0692A7",
"W  c #0991A6",
"Q  c #0B91A6",
"!  c #0992A6",
"~  c #0D91A5",
"^  c #0091A8",
"/  c #0193AA",
"(  c #0692A8",
")  c #0194AA",
"_  c #0194AB",
"`  c #0195AB",
"'  c #0294AA",
"]  c #0394AA",
"[  c #0294AB",
"{  c #0497AB",
"}  c #0095AC",
"|  c #0195AC",
" . c #0095AD",
".. c #0294AC",
"X. c #0295AC",
"o. c #0096AC",
"O. c #0196AC",
"+. c #0096AD",
"@. c #0196AD",
"#. c #0197AD",
"$. c #0296AD",
"%. c #0595AC",
"&. c #0695AC",
"*. c #0696AC",
"=. c #0D97AA",
"-. c #0895AC",
";. c #0896AC",
":. c #0A96AC",
">. c #0198AE",
",. c #0199AE",
"<. c #0598AE",
"1. c #0499AF",
"2. c #059AAF",
"3. c #0898AA",
"4. c #0C99A9",
"5. c #1392A5",
"6. c #1791A4",
"7. c #1792A5",
"8. c #1D92A4",
"9. c #109AA7",
"0. c #149BA6",
"q. c #179CA5",
"w. c #1F9FA2",
"e. c #1A9AA6",
"r. c #189CA5",
"t. c #1098A9",
"y. c #1599A8",
"u. c #1198AC",
"i. c #149BAF",
"p. c #079EB1",
"a. c #0A9BB0",
"s. c #109EB2",
"d. c #179FB2",
"f. c #248FA0",
"g. c #2092A4",
"h. c #239DA3",
"j. c #209FA2",
"k. c #249EA3",
"l. c #259EA3",
"z. c #219CA4",
"x. c #2C98A8",
"c. c #3393A1",
"v. c #3595A3",
"b. c #3397A7",
"n. c #3498A8",
"m. c #359BAA",
"M. c #3999A9",
"N. c #3D9AA8",
"B. c #3E9DAC",
"V. c #19A5B6",
"C. c #1AA8B7",
"Z. c #1AA7B8",
"A. c #20A8B9",
"S. c #27A9BA",
"D. c #25ACBB",
"F. c #3CA7B7",
"G. c #3CA7B8",
"H. c #5BAF8E",
"J. c #5FB18D",
"K. c #43A996",
"L. c #47A897",
"P. c #4FAC92",
"I. c #4BAB94",
"U. c #4DA995",
"Y. c #53AB93",
"T. c #53AD91",
"R. c #56AC92",
"E. c #57AC92",
"W. c #51AA94",
"Q. c #66A582",
"!. c #62B08E",
"~. c #6AB28B",
"^. c #6FB588",
"/. c #73B084",
"(. c #77B785",
"). c #75B587",
"_. c #79B686",
"`. c #7FBA83",
"'. c #71B489",
"]. c #4A9CA8",
"[. c #5AA4B0",
"{. c #58A6B2",
"}. c #5DA6B2",
"|. c #5FA7B2",
" X c #53ACBA",
".X c #55ADBA",
"XX c #55ADBB",
"oX c #57ADBB",
"OX c #5AAFBC",
"+X c #5BAFBC",
"@X c #43B1BF",
"#X c #5DB0BD",
"$X c #5DB1BD",
"%X c #62A7B2",
"&X c #69AEB8",
"*X c #60B1BD",
"=X c #64B2BE",
"-X c #75B0B9",
";X c #7CB1B9",
":X c #7BB6BF",
">X c #3AB3C0",
",X c #3BB4C1",
"<X c #3FB5C2",
"1X c #43B1C0",
"2X c #44B7C3",
"3X c #55BDC8",
"4X c #6DB7C2",
"5X c #65BAC7",
"6X c #6EB9C5",
"7X c #75BBC5",
"8X c #60C1CB",
"9X c #6FC6CF",
"0X c #7ACAD3",
"qX c #7BCAD3",
"wX c #80BA82",
"eX c #84BA82",
"rX c #85BA82",
"tX c #8ABBC2",
"yX c #8ABCC4",
"uX c #87C2CB",
"iX c #94C1C8",
"pX c #97C3CA",
"aX c #99C8CF",
"sX c #84C6D0",
"dX c #88C7D1",
"fX c #A3C5CA",
"gX c #A5C8CD",
"hX c #A8C8CD",
"jX c #B0CDD2",
"kX c #B4CED2",
"lX c #B9D0D4",
"zX c #B9D1D4",
"xX c #BBD2D5",
"cX c #BED6DA",
"vX c #BFD6DA",
"bX c #C1D7DA",
"nX c #C0D8DB",
"mX c #D6E4E6",
"MX c #D7E6E8",
"NX c #DDE8EA",
"BX c #DEEAEB",
"VX c #E0EAEC",
"CX c #E4EAEC",
"ZX c #E7EBEC",
"AX c #E3ECEE",
"SX c #EDF1F2",
"DX c #F3F5F6",
"FX c #F5F7F8",
"GX c #F8FAFA",
"HX c #FAFBFB",
"JX c #FAFBFC",
"KX c gray99",
"LX c #FDFDFE",
"PX c #FDFEFE",
"IX c #FEFEFE",
"UX c #FEFFFF",
/* pixels */
"                                                                                                    ",
"                                                                                                    ",
"                                          9X3X2X,X,X2X3X9X                                          ",
"                                    >XV.s.1.O.O.O.O.O.O.1.s.V.>XqX                                  ",
"                              8XZ.a.O.O.O.O.O.O.O.O.O.O.O.O.O.O.a.Z.8X                              ",
"                            C.1.O.O.O.O.O.O.O.O.O.O.O.O.O.O.O.O.O.O.1.C.qX                          ",
"                        <Xp.O.O.O.O.O.O.O.O.O.O.O.O.O.O.O.O.O.O.O.O.O.O.p.<X                        ",
"                      D.>.O.O.O.O.O.O.O.O.O.O.O.O.O.O.O.O.O.O.O.O.O.O.O.O.>.D.                      ",
"                    A.O.O.O.O.O.O.O.O.O.O.O.O.O.O.O.O.O.O.O.O.O.O.O.O.O.O.O.O.A.                    ",
"                  S.O.O.O.O.O.O.O.O.O.O.O.O.O.O.O.O.O.O.O.O.O.O.O.O.O.O.O.O.O.O.S.                  ",
"                @X>.O.O.O.{ D ^.(.K.4.O.O.O.O.O.O.O.O.O.O.O.O.q.T.`.J.w.O.O.O.O.>.1X                ",
"                1.O.O.O.G M v v v v k H.O.O.O.O.O.O.O.O.O.3.7 v v v v v t 0.O.O.O.1.                ",
"              d.O.O.O.P.x v v v v v v v 6 O.O.O.O.O.O.O.4.m v v v v v v v B h.O.O.O.d.              ",
"            5XO.O.O.r.k v v v v v v h f v I.O.O.O.O.O.O.w v v v v v v z d z r O.O.O.O.5X            ",
"            i.O.O.O.wXv v v v v d $ . . $ 0 O.O.O.O.O.9.x v v v v v 1 X . o 4 H O.O.O.i.            ",
"          sX:.:.:.:.i v v v v v * . . . . = t.:.:.:.:.W.v v v v v q . . . . X /.:.:.:.:.dX          ",
"          G.:.:.:.:.b v v v v v O . . . . % h.:.:.:.:.R.v v v v v , . . . . . : :.:.:.:.F.          ",
"          u.:.:.:.:.u v v v v v @ . . . . & t.:.:.:.:.U.v v v v v < . . . . . Q.:.:.:.:.u.          ",
"          ) :.:.:.:.rXv v v v v 2 . . . . ; :.:.:.:.:.e.x v v v v f + . . . # H :.:.:.:.)           ",
"          O.:.:.:.:.z.k v v v v v 4 - - 3 Y.:.:.:.:.:.:.w v v v v v a - - > 9 :.:.:.:.:.O.          ",
"        6XO.:.:.:.:.:.R.x v v v v v v v 7 :.:.:.:.:.:.:.y.n v v v v v v v V k.:.:.:.:.:.O.6X        ",
"        #XO.:.:.:.:.:.:.L.N v v v v g (.:.:.:.:.:.:.:.:.:.y.y x v v v v p z.:.:.:.:.:.:.O.#X        ",
"        OXO.:.:.:.:.:.:.:.=.L.'._.R.y.:.:.:.:.:.:.:.:.:.:.:.:.k.!.rX~.F :.:.:.:.:.:.:.:.O.XX        ",
"        OXO.:.:.:.:.:.:.:.:.:.:.:.:.:.:.:.:.:.:.:.:.:.:.:.:.:.:.:.:.:.:.:.:.:.:.:.:.:.:.O. X        ",
"        OXO.:.:.:.:.:.:.:.:.:.:.:.:.:.:.:.:.:.:.:.:.:.:.:.:.:.:.:.:.:.:.:.:.:.:.:.:.:.:.O. X        ",
"        OXO.:.:.:.:.:.:.:.:.:.:.:.:.:.:.:.:.:.:.:.:.:.:.:.:.:.:.:.:.:.:.:.:.:.:.:.:.:.:.O. X        ",
"        OXO.:.:.:.:.:.:.:.:.:.:.:.:.:.:.:.:.:.:.:.:.:.:.:.:.:.:.:.:.:.:.:.:.:.:.:.:.:.:.O. X        ",
"        OXO.:.:.:.:.:.:.:.:.:.:.:.:.:.:.:.:.:.:.:.:.:.:.:.:.:.:.:.:.:.:.:.:.:.:.:.:.:.:.O. X        ",
"        OXO.:.:.:.:.:.:.:.:.:.:.:.:.:.:.:.:.:.:.:.:.:.:.:.:.:.:.:.:.:.:.:.:.:.:.:.:.:.:.O. X        ",
"        OXO.:.:.:.:.:.:.:.:.:.:.:.:.:.:.:.:.:.:.:.:.:.:.:.:.:.:.:.:.:.:.:.:.:.:.:.:.:.:.O. X        ",
"        OXO.*.*.*.*.*.*.*.*.*.*.*.*.*.*.*.*.*.*.*.*.*.*.*.*.*.*.*.*.*.*.*.*.*.*.*.*.*.*.O. X        ",
"        OXO.O.O.O.O.O.O.O.O.O.O.O.O.O.O.O.O.O.O.O.O.O.O.O.O.O.O.O.O.O.O.O.O.O.O.O.O.O.O.O. X        ",
"        OXO.O.O.O.O.O.O.O.O.O.O.O.O.O.O.O.O.O.O.O.O.O.O.O.O.O.O.O.O.O.O.O.O.O.O.O.O.O.O.O. X        ",
"        OXO.O.O.O.O.O.O.O.O.O.O.O.O.O.O.O.O.O.O.O.O.O.O.O.O.O.O.O.O.O.O.O.O.O.O.O.O.O.O.O. X        ",
"        OXO.O.O.O.O.O.O.O.O.O.O.O.O.O.O.O.O.O.O.O.O.O.O.O.O.O.O.O.O.O.O.O.O.O.O.O.O.O.O.O. X        ",
"        OXO.O.O.O.O.O.O.O.O.O.O.O.O.O.O.O.O.O.O.O.O.O.O.O.O.O.O.O.O.O.O.O.O.O.O.O.O.O.O.O. X        ",
"        OXO.O.O.O.O.O.O.O.O.O.O.O.O.O.O.O.O.O.O.O.O.O.O.O.O.O.O.O.O.O.O.O.O.O.O.O.O.O.O.O. X        ",
"        OXO.O.O.O.O.O.O.O.O.O.O.O.O.O.O.O.O.O.O.O.O.O.O.O.O.O.O.O.O.O.O.O.O.O.O.O.O.O.O.O. X        ",
"        OXO.O.O.O.O.O.O.O.O.O.O.O.O.O.O.O.O.O.O.O.O.O.O.O.O.O.O.O.O.O.O.O.O.O.O.O.O.O.O.O. XJX      ",
"        XXO.O.O.O.O.O.O.O.O.O.O.O.O.O.O.O.O.O.O.O.O.O.O.O.O.O.O.O.O.O.O.O.O.O.O.O.O.O.O.O. XJX      ",
"         XO.O.O.O.O.O.O.O.O.O.O.O.O.O.O.O.O.O.O.O.O.O.O.O.O.O.O.O.O.O.O.O.O.O.O.O.O.O.O.O. XJX      ",
"        XXO.O.O.O.O.O.O.O.O.O.O.O.O.O.O.O.O.O.O.O.O.O.O.O.O.O.O.O.O.O.O.O.O.O.O.O.O.O.O.O.XXJX      ",
"        OXO.O.O.O.O.O./ P Y O.O.O.O.O.O.O.O.O./ L L / O.O.O.O.O.O.O.O.O.) L Y O.O.O.O.O.O.OXGX      ",
"        *XO.O.O.O.O.W %XxXfXg.O.O.O.O.O.O.O.Y |.xXxX|.Y O.O.O.O.O.O.O.) N.kXhXm./ O.O.O.O.OXJX      ",
"        4XO.O.O.O.~ iX        7.O.O.O.O.O.) &X        :X( O.O.O.O.O.O.M.ZXKXKXNXB.) O.O.O.=XKX      ",
"        uX) O.O.W iX          gXY O.O.O.O.m.            [.) O.O.O.O.8.mXKX      MXx.O.O.O.7XKX      ",
"          Y O.W yX              -X/ O.O.5.nX            AXb.) O.O.I vXKX          vX7.O.) aXKX      ",
"          [.Z tX                  ;XZ f.hX                NX].C c.bXKX            KXjXS v.VXKX      ",
"                                                            GXZXFXKX                KXSXDXKX        ",
"                                                                                                    "
};
