/* XPM */
static char *a0bfd92dec8943daca64ae82660e98e15Hc9litotrtYxaEi[] = {
/* columns rows colors chars-per-pixel */
"50 50 166 2 ",
"   c None",
".  c #0B1E3F",
"X  c #0E213F",
"o  c #162740",
"O  c #1C2B41",
"+  c #253341",
"@  c #303B43",
"#  c #195E70",
"$  c #29636B",
"%  c #306C6F",
"&  c #386766",
"*  c #25767F",
"=  c #444B45",
"-  c #4B5146",
";  c #6E6C49",
":  c #716E4A",
">  c #7B764B",
",  c #54957E",
"<  c #88804C",
"1  c #93894D",
"2  c #9F934E",
"3  c #9B9A58",
"4  c #BEAB52",
"5  c #8DBC7F",
"6  c #95BF7C",
"7  c #CDB653",
"8  c #BECB6E",
"9  c #A6C476",
"0  c #ABC675",
"q  c #A3C378",
"w  c #BAC970",
"e  c #B6C871",
"r  c #DCC658",
"t  c #EACD56",
"y  c #EFD95E",
"u  c #F5DB5C",
"i  c #FFDE59",
"p  c #C4CD6C",
"a  c #CBCF6A",
"s  c #DDD464",
"d  c #D5D167",
"f  c #E3D662",
"g  c #E8D760",
"h  c #198C9E",
"j  c #118B9E",
"k  c #238F9F",
"l  c #2F9393",
"z  c #2BA29E",
"x  c #3FA797",
"c  c #30A19F",
"v  c #38A39C",
"b  c #078FA4",
"n  c #088FA4",
"m  c #118FA2",
"M  c #0591A6",
"N  c #0B92A6",
"B  c #0096AD",
"V  c #0A96AC",
"C  c #0399AE",
"Z  c #0898AA",
"A  c #1692A5",
"S  c #139AA7",
"D  c #1C9EA4",
"F  c #1399AB",
"G  c #1D92A4",
"H  c #079EB1",
"J  c #0A9BB0",
"K  c #149FB2",
"L  c #248FA0",
"P  c #239EA2",
"I  c #289FA1",
"U  c #2695A6",
"Y  c #3495A4",
"T  c #359AA9",
"R  c #3C9BAA",
"E  c #19A5B6",
"W  c #1AA8B7",
"Q  c #1AA7B8",
"!  c #2CA0A0",
"~  c #24AABA",
"^  c #3CA7B7",
"/  c #3CA7B8",
"(  c #5AAD8F",
")  c #47A897",
"_  c #49A996",
"`  c #56AC93",
"'  c #6BB489",
"]  c #7AB686",
"[  c #77B686",
"{  c #4A9CA8",
"}  c #5F9EA8",
"|  c #5CA6B2",
" . c #53ACBA",
".. c #5AAFBC",
"X. c #43B1BF",
"o. c #5DB1BD",
"O. c #66ABB5",
"+. c #71ACB4",
"@. c #62B2BE",
"#. c #7CB4BC",
"$. c #75B0B9",
"%. c #3CB4C1",
"&. c #44B5C2",
"*. c #55BDC8",
"=. c #65BAC7",
"-. c #6EB9C5",
";. c #6DB7C2",
":. c #73B9C4",
">. c #7BBDC7",
",. c #60C1CB",
"<. c #6FC6CF",
"1. c #7BCAD3",
"2. c #84BA82",
"3. c #84B4BB",
"4. c #83BFC8",
"5. c #8AC6CF",
"6. c #87C2CB",
"7. c #9FC6CC",
"8. c #99C8CF",
"9. c #94C1C8",
"0. c #82C7D1",
"q. c #88C7D1",
"w. c #8ECBD4",
"e. c #92CED7",
"r. c #96D4DB",
"t. c #98D2DB",
"y. c #A4C7CD",
"u. c #ACCED4",
"i. c #B3CED2",
"p. c #A2D7DE",
"a. c #B2D7DC",
"s. c #BAD4D8",
"d. c #A2D7E0",
"f. c #ADDDE4",
"g. c #A4D9E1",
"h. c #B2DEE6",
"j. c #80EDFF",
"k. c #8EF3FF",
"l. c #96F5FF",
"z. c #9BF6FF",
"x. c #B3E1E7",
"c. c #BFE3E8",
"v. c #A1F7FF",
"b. c #B6F8FF",
"n. c #BCFEFF",
"m. c #C2E5EA",
"M. c #CCE9ED",
"N. c #C9E2E6",
"B. c #D3E9ED",
"V. c #DBECEF",
"C. c #C1ECF3",
"Z. c #DBEEF3",
"A. c #D2EDF2",
"S. c #C4FAFF",
"D. c #C8FFFF",
"F. c #DCF1F4",
"G. c #D5FDFF",
"H. c #D9FEFF",
"J. c #E0EAEC",
"K. c #E5F4F7",
"L. c #EBF5F6",
"P. c #E7F5F9",
"I. c #EDFBFD",
"U. c #E1FDFF",
"Y. c #F6FBFC",
"T. c #FAFBFC",
/* pixels */
"                                                                                                    ",
"                                          n.U.I.Y.Y.I.F.e.                                          ",
"                                    S.m.r.<.*.&.%.%.&.*.<.r.m.f.                                    ",
"                              z.M.1.%.E K C B B B B B B C K E %.1.M.                                ",
"                          k.M.,.Q J B B B B B B B B B B B B B B J Q ,.M.                            ",
"                        S.1.W C B B B B B B B B B B B B B B B B B B C W 1.x.                        ",
"                      C.%.H B B B B B B B B B B B B B B B B B B B B B B H %.M.                      ",
"                    c.~ C B B B B B B B B B B B B B B B B B B B B B B B B C ~ c.                    ",
"                  c.~ B B B B B B B B B B B B B B B B B B B B B B B B B B B B ~ m.                  ",
"                C.~ B B B B B B B B B B B B B B B B B B B B B B B B B B B B B B ~ B.                ",
"              b.X.C B B B B B B B B B B B B B B B B B B B B B B B B B B B B B B C &.m.              ",
"            j.0.C B B B B B B B B B B B B B B B B B B B B B B B B B B B B B B B B C 0.              ",
"            M.K B B B B B B Z D P S B B B B B B B B B B B B B B D P D B B B B B B B K B.            ",
"          v.=.B B B B B D 0 i i i i a x B B B B B B B B B B ' f i i i u ] C B B B B B =.            ",
"          B.F B B B B z g i i i i i i i ( B B B B B B B B 9 i i i i i i i p N B B B B F B.          ",
"        l.0.V V V V F f i i i i i i i i i v V V V V V V ] i i i i i i i i i q V V V V V q.          ",
"        G./ V V V V ' i i i i i i i i i i e V V V V V F y i i i i i i i i i i ! V V V V ^ F.        ",
"        V.F V V V V 0 i i i i i i i i i i u V V V V V ) i i i i i i i i i i i ] V V V V F V.        ",
"        a.B V V V V p i i i i i u i i i i i P V V V V ` i i i i i u i i i i i 5 V V V V B a.        ",
"      z.5.B V V V V w i i i 2 O . + 4 i i i S V V V V ` i i i t = . . ; u i i 2.V V V V B 5.w.      ",
"      D.-.B V V V V 6 i i 7 X . . . o u i s V V V V V I i i i - . . . . 1 i i _ V V V V B -.T.      ",
"      G.o.B V V V V v i i < . . . . . t i [ V V V V V V w i u . . . . . > i s V V V V V B o.T.      ",
"      H...B V V V V V 2.i 1 . . . . . t 8 V V V V V V V I g i X . . . . > i ) V V V V V B  .T.      ",
"      G...B V V V V V V ] r O . . . @ 9 S V V V V V V V V c d : . . . . 3 ) V V V V V V B  .T.      ",
"      F...B V V V V V V V I , $ & # l V V V V V V V V V V V V ( % & $ * F V V V V V V V B  .T.      ",
"      F...B V V V V V V V V V V V V V V V V V V V V V V V V V V V V V V V V V V V V V V B  .T.      ",
"      F...B V V V V V V V V V V V V V V V V V V V V V V V V V V V V V V V V V V V V V V B  .T.      ",
"      K...B V V V V V V V V V V V V V V V V V V V V V V V V V V V V V V V V V V V V V V B  .T.      ",
"      K...B V V V V V V V V V V V V V V V V V V V V V V V V V V V V V V V V V V V V V V B  .T.      ",
"      P...B V V V V V V V V V V V V V V V V V V V V V V V V V V V V V V V V V V V V V V B  .T.      ",
"      P...B Z Z Z Z Z Z Z Z Z Z Z Z Z Z Z Z Z Z Z Z Z Z Z Z Z Z Z Z Z Z Z Z Z Z Z Z Z Z B  .T.      ",
"      P...B B B B B B B B B B B B B B B B B B B B B B B B B B B B B B B B B B B B B B B B  .T.      ",
"      K...B B B B B B B B B B B B B B B B B B B B B B B B B B B B B B B B B B B B B B B B  .T.      ",
"      K...B B B B B B B B B B B B B B B B B B B B B B B B B B B B B B B B B B B B B B B B  .T.      ",
"      F...B B B B B B B B B B B B B B B B B B B B B B B B B B B B B B B B B B B B B B B B  .T.      ",
"      Z...B B B B B B B B B B B B B B B B B B B B B B B B B B B B B B B B B B B B B B B B  .T.      ",
"      A...B B B B B B B B B B B B B B B B B B B B B B B B B B B B B B B B B B B B B B B B  .T.      ",
"      m...B B B B B B B B B B B B B B B B B B B B B B B B B B B B B B B B B B B B B B B B  .T.      ",
"      d...B B B B B B B B B B B B B B B B B B B B B B B B B B B B B B B B B B B B B B B B  .T.      ",
"      g. .B B B B B B B B B B B B B B B B B B B B B B B B B B B B B B B B B B B B B B B B  .T.      ",
"      f. .B B B B B B B B B B B B B B B B B B B B B B B B B B B B B B B B B B B B B B B B  .T.      ",
"      f. .B B B B B B B B B B B B B B B B B B B B B B B B B B B B B B B B B B B B B B B B  .T.      ",
"      x...B B B B B B B n M B B B B B B B B B B b b B B B B B B B B B B B b M B B B B B B ..L.      ",
"      t.@.B B B B B N O.s.y.L B B B B B B B M | i.y.| M B B B B B B B B R i.7.T B B B B B ..Z.      ",
"        ;.B B B B N 9.      a.A B B B B B B O.        #.M B B B B B B R u.    +.R B B B B @.N.      ",
"        6.B B B N >.          7.M B B B B T             | B B B B B G u.          U B B B :.        ",
"        s.M B N :.              $.B B B A :.              T B B B m u.              A B B 8.        ",
"        p.| h :.                  #.h L 4.                  { j Y y.                } k Y J.        ",
"          h.                        w.                        3.                      3.s.          ",
"                                                                                                    "
};
