/* XPM */
static char *fb0dd239efe94a66a621af70f15355f2YD7yfmQHjsA5HCkI[] = {
/* columns rows colors chars-per-pixel */
"50 50 133 2 ",
"   c None",
".  c #0B1E3F",
"X  c #0E213F",
"o  c #1A2A40",
"O  c #293542",
"+  c #343E43",
"@  c #404844",
"#  c #5B5D47",
"$  c #666548",
"%  c #79744A",
"&  c #7E784B",
"*  c #837C4C",
"=  c #8A824C",
"-  c #9B8F4E",
";  c #9E924E",
":  c #AB9C50",
">  c #B2A151",
",  c #8EBD7E",
"<  c #92BE7D",
"1  c #98BF7B",
"2  c #C5B053",
"3  c #C9B453",
"4  c #D5BD54",
"5  c #A5C576",
"6  c #ADC774",
"7  c #A3C378",
"8  c #B5C872",
"9  c #BAC970",
"0  c #E4C956",
"q  c #EACE56",
"w  c #EFD257",
"e  c #EFD95E",
"r  c #F3D557",
"t  c #F5D658",
"y  c #F4DA5C",
"u  c #FFDE59",
"i  c #C2CC6D",
"p  c #CDCF69",
"a  c #CFD068",
"s  c #D3D167",
"d  c #DFD563",
"f  c #E3D662",
"g  c #118B9E",
"h  c #198C9E",
"j  c #238F9F",
"k  c #2CA29E",
"l  c #30A19F",
"z  c #3CA59B",
"x  c #078FA4",
"c  c #088FA4",
"v  c #118FA2",
"b  c #0591A6",
"n  c #0B91A6",
"m  c #0096AD",
"M  c #0A96AC",
"N  c #0399AE",
"B  c #0D9AA9",
"V  c #1692A5",
"C  c #1D92A4",
"Z  c #149BA6",
"A  c #1C9CA4",
"S  c #1299AC",
"D  c #079EB1",
"F  c #0A9BB0",
"G  c #149FB2",
"H  c #248FA0",
"J  c #2092A4",
"K  c #209FA2",
"L  c #2A9FA1",
"P  c #2C98A8",
"I  c #3495A4",
"U  c #359AA9",
"Y  c #3C9BAA",
"T  c #19A5B6",
"R  c #1AA8B7",
"E  c #1AA7B8",
"W  c #24A0A1",
"Q  c #24AABA",
"!  c #3CA7B7",
"~  c #3CA7B8",
"^  c #4FAA94",
"/  c #54AC92",
"(  c #5AAD90",
")  c #67B38A",
"_  c #6CB489",
"`  c #4A9CA8",
"'  c #5CA6B2",
"]  c #53ACBA",
"[  c #5AAFBC",
"{  c #43B1BF",
"}  c #5DB1BD",
"|  c #62A7B2",
" . c #69AEB8",
".. c #62B2BE",
"X. c #75B0B9",
"o. c #7CB4BC",
"O. c #3CB4C1",
"+. c #44B5C2",
"@. c #55BDC8",
"#. c #6DB7C2",
"$. c #65BAC7",
"%. c #6EB9C5",
"&. c #75BBC5",
"*. c #60C1CB",
"=. c #6FC6CF",
"-. c #7ACAD3",
";. c #82B983",
":. c #88BC80",
">. c #8ABCC3",
",. c #87C2CB",
"<. c #8AC6CF",
"1. c #96C2C9",
"2. c #99C8CF",
"3. c #82C7D1",
"4. c #88C7D1",
"5. c #A3C5CA",
"6. c #A5C8CD",
"7. c #A8C8CD",
"8. c #B2CED2",
"9. c #BAD1D4",
"0. c #B0D7DD",
"q. c #BCD6DA",
"w. c #C1D7DA",
"e. c #C0D8DB",
"r. c #C9DDE0",
"t. c #D6E4E6",
"y. c #D7E6E8",
"u. c #DEE9EB",
"i. c #E4EBED",
"p. c #EDF1F2",
"a. c #F3F5F6",
"s. c #F5F7F8",
"d. c #FCFCFD",
/* pixels */
"                                                                                                    ",
"                                                                                                    ",
"                                          =.@.+.O.O.+.@.=.                                          ",
"                                  -.O.T G N m m m m m m N G T O.-.                                  ",
"                              *.E F m m m m m m m m m m m m m m F E *.                              ",
"                            R N m m m m m m m m m m m m m m m m m m N R -.                          ",
"                        O.D m m m m m m m m m m m m m m m m m m m m m m D O.                        ",
"                      Q N m m m m m m m m m m m m m m m m m m m m m m m m N Q                       ",
"                    Q m m m m Z Z N m m m m m m m m m m m m m m B Z B m m m m Q                     ",
"                  Q m m Z , y u u u 8 k m m m m m m m m m m / a u u u d _ N m m Q                   ",
"                { N m W d u t ; * : u y / m m m m m m m m , u u 3 * = 0 u 6 N m N +.                ",
"              3.N m N s u u @ . . . # u y k m m m m m m ) u u ; X . . o 4 u < m m N 3.              ",
"              G m m ) u u - . . . . . w u 6 m m m m m N e u u o . . . . & u u K m m G               ",
"            $.m m m 5 u u * . . . . . q u y m m m m m z u u u . . . . . % u u _ m m m $.            ",
"            S m m m i u u > . . . . . t u u A m m m m / u u u O . . . . * u u :.m m m S             ",
"          3.M M M M 9 u u u $ . . X = u u u Z M M M M / u u u 2 o . . + q u u ;.M M M M 4.          ",
"          ~ M M M M 1 u u u u r q t u u u f M M M M M L u u u u u q q u u u u ( M M M M !           ",
"          S M M M M z u u u u u u u u u u ;.M M M M M M i u u u u u u u u u f S M M M M S           ",
"          m M M M M M < u u u u u u u u p S M M M M M M l y u u u u u u u u ^ M M M M M m 0.        ",
"          m M M M M M B , u u u u u u i A M M M M M M M M z f u u u u u e / M M M M M M m <.        ",
"        %.m M M M M M M M z < i i 7 / M M M M M M M M M M M S _ 8 i 9 ;.A M M M M M M M m %.        ",
"        } m M M M M M M M M M M M M M M M M M M M M M M M M M M M M M M M M M M M M M M m }         ",
"        [ m M M M M M M M M M M M M M M M M M M M M M M M M M M M M M M M M M M M M M M m ]         ",
"        [ m M M M M M M M M M M M M M M M M M M M M M M M M M M M M M M M M M M M M M M m ]         ",
"        [ m M M M M M M M M M M M M M M M M M M M M M M M M M M M M M M M M M M M M M M m ]         ",
"        [ m M M M M M M M M M M M M M M M M M M M M M M M M M M M M M M M M M M M M M M m ]         ",
"        [ m M M M M M M M M M M M M M M M M M M M M M M M M M M M M M M M M M M M M M M m ]         ",
"        [ m M M M M M M M M M M M M M M M M M M M M M M M M M M M M M M M M M M M M M M m ]         ",
"        [ m M M M M M M M M M M M M M M M M M M M M M M M M M M M M M M M M M M M M M M m ]         ",
"        [ m M M M M M M M M M M M M M M M M M M M M M M M M M M M M M M M M M M M M M M m ]         ",
"        [ m M M M M M M M M M M M M M M M M M M M M M M M M M M M M M M M M M M M M M M m ]         ",
"        [ m m m m m m m m m m m m m m m m m m m m m m m m m m m m m m m m m m m m m m m m ]         ",
"        [ m m m m m m m m m m m m m m m m m m m m m m m m m m m m m m m m m m m m m m m m ]         ",
"        [ m m m m m m m m m m m m m m m m m m m m m m m m m m m m m m m m m m m m m m m m ] d.      ",
"        [ m m m m m m m m m m m m m m m m m m m m m m m m m m m m m m m m m m m m m m m m ] d.      ",
"        [ m m m m m m m m m m m m m m m m m m m m m m m m m m m m m m m m m m m m m m m m ] d.      ",
"        [ m m m m m m m m m m m m m m m m m m m m m m m m m m m m m m m m m m m m m m m m ] d.      ",
"        [ m m m m m m m m m m m m m m m m m m m m m m m m m m m m m m m m m m m m m m m m ] d.      ",
"        [ m m m m m m m m m m m m m m m m m m m m m m m m m m m m m m m m m m m m m m m m ] d.      ",
"        ] m m m m m m m m m m m m m m m m m m m m m m m m m m m m m m m m m m m m m m m m ] d.      ",
"        ] m m m m m m m m m m m m m m m m m m m m m m m m m m m m m m m m m m m m m m m m ] d.      ",
"        ] m m m m m m m m m m m m m m m m m m m m m m m m m m m m m m m m m m m m m m m m ] d.      ",
"        [ m m m m m m m c b m m m m m m m m m m x x m m m m m m m m m m m x b m m m m m m [ s.      ",
"        ..m m m m m n | 9.5.J m m m m m m m b ' 9.9.' b m m m m m m m m Y 8.7.U m m m m m [ d.      ",
"        #.m m m m n 1.      r.V m m m m m m  .        o.b m m m m m m Y i.d.d.u.Y m m m m ..d.      ",
"        ,.m m m n 1.          6.b m m m m U             ' m m m m m C t.d.      y.P m m m &.d.      ",
"        q.b m n >.              X.m m m V e.            i.U m m m v q.d.          q.V m m 2.d.      ",
"          ' h >.                  o.h H 7.                u.` g I w.d.            d.8.j I i.d.      ",
"                                                            s.i.s.d.                d.p.a.d.        ",
"                                                                                                    "
};
