/* XPM */
static char *_26eb3f2aecf486283b31c1be0f107628Kw1M2eaz5v1tBWF[] = {
/* columns rows colors chars-per-pixel */
"50 50 133 2 ",
"   c None",
".  c #0B1E3F",
"X  c #0E203F",
"o  c #162640",
"O  c #1C2B41",
"+  c #253341",
"@  c #313C43",
"#  c #384244",
"$  c #4C5146",
"%  c #5B5D47",
"&  c #75714A",
"*  c #79754A",
"=  c #7E794B",
"-  c #847D4C",
";  c #90864D",
":  c #92884D",
">  c #9B904E",
",  c #A7994F",
"<  c #BEAA52",
"1  c #8EBD7F",
"2  c #92BE7D",
"3  c #C1AD52",
"4  c #C6B152",
"5  c #CDB653",
"6  c #9FC379",
"7  c #BFCC6E",
"8  c #AFC673",
"9  c #A3C378",
"0  c #B4C872",
"q  c #BAC970",
"w  c #D9C156",
"e  c #EACE57",
"r  c #EFD95E",
"t  c #F3D557",
"y  c #F3D75A",
"u  c #F5D95B",
"i  c #FFDE59",
"p  c #C3CC6B",
"a  c #CECF69",
"s  c #CFD068",
"d  c #D7D266",
"f  c #DDD464",
"g  c #E3D662",
"h  c #E8D760",
"j  c #118B9E",
"k  c #198C9E",
"l  c #238F9F",
"z  c #2FA39D",
"x  c #32A39E",
"c  c #3EA699",
"v  c #078FA4",
"b  c #088FA4",
"n  c #118FA2",
"m  c #0591A6",
"M  c #0B91A6",
"N  c #0096AD",
"B  c #0A96AC",
"V  c #0399AE",
"C  c #0B99A9",
"Z  c #1692A5",
"A  c #1D92A4",
"S  c #149BA6",
"D  c #1B9CA4",
"F  c #1399AB",
"G  c #079EB1",
"H  c #0A9BB0",
"J  c #149FB2",
"K  c #248FA0",
"L  c #2092A4",
"P  c #229DA3",
"I  c #2C98A8",
"U  c #3495A4",
"Y  c #359AA9",
"T  c #3C9BAA",
"R  c #19A5B6",
"E  c #1AA8B7",
"W  c #1AA7B8",
"Q  c #24AABA",
"!  c #3CA7B7",
"~  c #3CA7B8",
"^  c #5BAF8E",
"/  c #5FB18D",
"(  c #46A897",
")  c #4DAB94",
"_  c #55AC92",
"`  c #62B08E",
"'  c #6DB48A",
"]  c #76B686",
"[  c #7BB785",
"{  c #7FBA83",
"}  c #71B489",
"|  c #4A9CA8",
" . c #5CA6B2",
".. c #53ACBA",
"X. c #5AAFBC",
"o. c #43B1BF",
"O. c #5DB1BD",
"+. c #62A7B2",
"@. c #69AEB8",
"#. c #62B2BE",
"$. c #75B0B9",
"%. c #7CB4BC",
"&. c #3CB4C1",
"*. c #44B5C2",
"=. c #55BDC8",
"-. c #6DB7C2",
";. c #65BAC7",
":. c #6EB9C5",
">. c #75BBC5",
",. c #60C1CB",
"<. c #6FC6CF",
"1. c #7ACAD3",
"2. c #83BA82",
"3. c #8ABCC3",
"4. c #87C2CB",
"5. c #96C2C9",
"6. c #99C8CF",
"7. c #84C6D0",
"8. c #A3C5CA",
"9. c #A5C8CD",
"0. c #A8C8CD",
"q. c #B2CED2",
"w. c #BAD1D4",
"e. c #BFD6DA",
"r. c #C1D7DA",
"t. c #D6E4E6",
"y. c #D7E6E8",
"u. c #DEE9EB",
"i. c #E4EBED",
"p. c #EDF1F2",
"a. c #F3F5F6",
"s. c #F5F7F8",
"d. c #FCFDFD",
/* pixels */
"                                                                                                    ",
"                                                                                                    ",
"                                          <.=.*.&.&.*.=.<.                                          ",
"                                  1.&.R J V N N N N N N V J R &.1.                                  ",
"                              ,.W H N N N N N N N N N N N N N N H W ,.                              ",
"                            E V N N N N N N N N N N N N N N N N N N V E 1.                          ",
"                        &.G N N N N N N N N N N N N N N N N N N N N N N G &.                        ",
"                      Q V N N N N N N N N N N N N N N N N N N N N N N N N V Q                       ",
"                    Q N N N N N N N N N N N N N N N N N N N N N N N N N N N N Q                     ",
"                  Q N N N N N N N N N N N N N N N N N N N N N N N N N N N N N N Q                   ",
"                o.V N N N V z ' ] ( C N N N N N N N N N N N N S _ { / D N N N N V *.                ",
"                V N N N x d i i i i u ^ N N N N N N N N N C 2 i i i i i 8 S N N N V                 ",
"              J N N N ) i i i i i i i i 1 N N N N N N N C s i i i i i i i g P N N N J               ",
"            ;.N N N D u i e t i i i i i i ) N N N N N N 6 i u e i i i i i i 7 N N N N ;.            ",
"            F N N N 2.w @ . . % u i i i i p N N N N N S i * . . + 4 i i i i i c N N N F             ",
"          7.B B B B 0 # . . . . : i i i i i F B B B B _ , . . . . O i i i i i [ B B B B             ",
"          ~ B B B B p . . . . . = i i i i i P B B B B _ & . . . . X i i i i i 1 B B B B !           ",
"          F B B B B 8 X . . . . - i i i i i F B B B B ) = . . . . X i i i i i [ B B B B F           ",
"          N B B B B 2.* . . . X 3 i i i i p B B B B B D w o . . . $ i i i i i c B B B B N           ",
"          N B B B B P y > - - < i i i i i _ B B B B B B 6 5 - - ; t i i i i p B B B B B N           ",
"        :.N B B B B B _ i i i i i i i i 2 B B B B B B B S a i i i i i i i h P B B B B B N           ",
"        O.N B B B B B B ( f i i i i r ] B B B B B B B B B S 9 i i i i i q P B B B B B B N O.        ",
"        X.N B B B B B B B C ( } [ _ S B B B B B B B B B B B B P ` 2.' x B B B B B B B B N ..        ",
"        X.N B B B B B B B B B B B B B B B B B B B B B B B B B B B B B B B B B B B B B B N ..        ",
"        X.N B B B B B B B B B B B B B B B B B B B B B B B B B B B B B B B B B B B B B B N ..        ",
"        X.N B B B B B B B B B B B B B B B B B B B B B B B B B B B B B B B B B B B B B B N ..        ",
"        X.N B B B B B B B B B B B B B B B B B B B B B B B B B B B B B B B B B B B B B B N ..        ",
"        X.N B B B B B B B B B B B B B B B B B B B B B B B B B B B B B B B B B B B B B B N ..        ",
"        X.N B B B B B B B B B B B B B B B B B B B B B B B B B B B B B B B B B B B B B B N ..        ",
"        X.N B B B B B B B B B B B B B B B B B B B B B B B B B B B B B B B B B B B B B B N ..        ",
"        X.N B B B B B B B B B B B B B B B B B B B B B B B B B B B B B B B B B B B B B B N ..        ",
"        X.N N N N N N N N N N N N N N N N N N N N N N N N N N N N N N N N N N N N N N N N ..        ",
"        X.N N N N N N N N N N N N N N N N N N N N N N N N N N N N N N N N N N N N N N N N ..        ",
"        X.N N N N N N N N N N N N N N N N N N N N N N N N N N N N N N N N N N N N N N N N ..        ",
"        X.N N N N N N N N N N N N N N N N N N N N N N N N N N N N N N N N N N N N N N N N ..        ",
"        X.N N N N N N N N N N N N N N N N N N N N N N N N N N N N N N N N N N N N N N N N ..        ",
"        X.N N N N N N N N N N N N N N N N N N N N N N N N N N N N N N N N N N N N N N N N ..        ",
"        X.N N N N N N N N N N N N N N N N N N N N N N N N N N N N N N N N N N N N N N N N ..        ",
"        X.N N N N N N N N N N N N N N N N N N N N N N N N N N N N N N N N N N N N N N N N ..        ",
"        ..N N N N N N N N N N N N N N N N N N N N N N N N N N N N N N N N N N N N N N N N ..d.      ",
"        ..N N N N N N N N N N N N N N N N N N N N N N N N N N N N N N N N N N N N N N N N ..d.      ",
"        ..N N N N N N N N N N N N N N N N N N N N N N N N N N N N N N N N N N N N N N N N ..d.      ",
"        X.N N N N N N N b m N N N N N N N N N N v v N N N N N N N N N N N v m N N N N N N X.s.      ",
"        #.N N N N N M +.w.8.L N N N N N N N m  .w.w. .m N N N N N N N N T q.0.Y N N N N N X.d.      ",
"        -.N N N N M 5.        Z N N N N N N @.        %.m N N N N N N T i.d.d.u.T N N N N #.d.      ",
"        4.N N N M 5.          9.m N N N N Y              .N N N N N A t.d.      y.I N N N >.d.      ",
"          m N M 3.              $.N N N Z               i.Y N N N n e.d.          e.Z N N 6.d.      ",
"           .k 3.                  %.k K 0.                u.| j U r.d.            d.q.l U i.d.      ",
"                                                            s.i.s.d.                d.p.a.d.        ",
"                                                                                                    "
};
