/* XPM */
static char *e2fabc5f28ad46349288da9cf93eb8deBLLX8XHTQIMW5KpL[] = {
/* columns rows colors chars-per-pixel */
"50 50 133 2 ",
"   c None",
".  c #010100",
"X  c #0C0203",
"o  c #070802",
"O  c #0B0D03",
"+  c #120305",
"@  c #1A0406",
"#  c #1C0708",
"$  c #0E1104",
"%  c #111505",
"&  c #141906",
"*  c #181C07",
"=  c #1B1F08",
"-  c #250709",
";  c #2C090B",
":  c #330A0D",
">  c #3C0B0F",
",  c #3F0C10",
"<  c #1C2208",
"1  c #21260A",
"2  c #252C0B",
"3  c #2C340D",
"4  c #2F380E",
"5  c #323B0F",
"6  c #363F10",
"7  c #430B0F",
"8  c #420C10",
"9  c #490E12",
"0  c #510F14",
"q  c #580E16",
"w  c #411214",
"e  c #461C12",
"r  c #4F1B1F",
"t  c #571016",
"y  c #5B1117",
"u  c #5F1218",
"i  c #641319",
"p  c #6C141B",
"a  c #61191F",
"s  c #74161D",
"d  c #7C171F",
"f  c #741E1E",
"g  c #641B21",
"h  c #7F1820",
"j  c #374110",
"k  c #3A4411",
"l  c #3E4913",
"z  c #414D13",
"x  c #455215",
"c  c #495616",
"v  c #4D5B17",
"b  c #4F5E18",
"n  c #505E18",
"m  c #556419",
"M  c #5C6D1B",
"N  c #5F701C",
"B  c #63751E",
"V  c #67791F",
"C  c #697C1F",
"Z  c #6B7E20",
"A  c #831921",
"S  c #8C1A23",
"D  c #931B25",
"F  c #9C1D27",
"G  c #9F1E28",
"H  c #A41F29",
"J  c #AF1F2B",
"K  c #AE212C",
"L  c #B5222E",
"P  c #B9232F",
"I  c #A5343D",
"U  c #C22431",
"Y  c #CD2633",
"T  c #D12734",
"R  c #D62836",
"E  c #DB2937",
"W  c #D02D3A",
"Q  c #DE2A38",
"!  c #CC303C",
"~  c #E32A39",
"^  c #EB2C3B",
"/  c #ED303F",
"(  c #EC3342",
")  c #ED3C49",
"_  c #BA4E56",
"`  c #ED404E",
"'  c #EE4653",
"]  c #EE4A57",
"[  c #EE4F5B",
"{  c #F14250",
"}  c #EF515E",
"|  c #F05E69",
" . c #F0626E",
".. c #F16C76",
"X. c #F26E79",
"o. c #F2727C",
"O. c #6E8221",
"+. c #708421",
"@. c #758A23",
"#. c #7B9225",
"$. c #809726",
"%. c #829927",
"&. c #879F28",
"*. c #8BA429",
"=. c #91AC2C",
"-. c #97B22D",
";. c #99B52D",
":. c #9DBA2F",
">. c #A1BE30",
",. c #A4C231",
"<. c #A9C732",
"1. c #ACCB33",
"2. c #B4D536",
"3. c #F37F88",
"4. c #ABAEAE",
"5. c #B4B8B8",
"6. c #B9BDBD",
"7. c #F48891",
"8. c #F5939A",
"9. c #F7AAB0",
"0. c #F8B5BA",
"q. c #FABDC2",
"w. c #F8C4C8",
"e. c #FCCBCF",
"r. c #FACFD2",
"t. c #FBD6D9",
"y. c #FFE3E5",
"u. c #FCE3E5",
"i. c #FDE9EA",
"p. c #FEEFF0",
"a. c #FEF2F3",
"s. c white",
"d. c #FFFFFF",
/* pixels */
"                                . $ .                                                               ",
"                              % M *.6 .                                                             ",
"                            O #.2.2.,.z .                                                           ",
"                            < >.<.;.2.<.x                                                           ",
"                            & ;.=.2 @.2.<.l                                                         ",
"                            O *.:.% o m 1.>.5                                                       ",
"                            o #.<.1 . . x ,.-.2                                                     ",
"                            . Z 2.5       l ,.&.*                                                   ",
"                            . M 2.z .       k ,.O.O                                                 ",
"                              m 2.b .         z >.v                                                 ",
"                              v 2.m .           n ;.3                                               ",
"                              c 2.m .           o C #.O                                             ",
"                              c 2.v .             & %.v                                             ",
"                              c 2.x .               5 &.<                                           ",
"                              v 2.j                 . N M .                                         ",
"                              m 1.3                   = %.2                                         ",
"                              M ,.<                   . m B .                                       ",
"                              B -.$                     = %.1                                       ",
"                            . +.*.o                     . M M                                       ",
"                            o $.@..                       1 %.&                                     ",
"                            $ =.M .                       . V c                                     ",
"                            < :.x                           4 @.O                                   ",
"                            4 ,.5                           o O.6                                   ",
"                            c :.<                             k O.o               X                 ",
"            s.s.s.        . Z *.$                             O @.4         @ 0 D K H s ;           ",
"            s.s.s.        O *.O.                                z C o   + i P ~ ^ ^ ^ ^ Y i X       ",
"          s.s.s.s.        2 ,.x                                 $ #.4 X S ^ ^ ^ ^ ^ ^ ^ ^ ~ h X     ",
"          6.4.4.5.        b :.<                                 . x x q ^ ^ ^ ^ ^ ^ ^ ^ ^ ^ ~ p     ",
"        # r g a w +     o #.Z .                                 . ; f Y ^ ^ ^ ^ ^ ^ ^ ^ ^ ^ ^ Y ;   ",
"      8 J ~ ^ ^ Q K t X & #.2 + 9 p p 9                   X : u F T ^ ^ ^ ^ ^ ^ ^ ^ ^ ^ ^ ^ ^ ^ p   ",
"    7 W { ( ^ ^ ^ ^ ~ H w e d U ~ ^ ^ ~ s               X A E ^ / / ^ ^ ^ ^ ^ ^ ^ ^ ^ ^ ^ ^ ^ ^ G . ",
"  @ _ q.u.0.` ^ ^ ^ ^ ^ ~ Q ^ ^ ^ ^ ^ ^ T ;             , Q ^ o.q.q.| ^ ^ ^ ^ ^ ^ ^ ^ ^ ^ ^ ^ ^ U # ",
"  g w.s.s.s.7.^ ^ ^ ^ ^ ^ ^ ^ ^ ^ ^ ^ ^ ^ u             p ^  .a.s.s.r.) ^ ^ ^ ^ ^ ^ ^ ^ ^ ^ ^ ^ E : ",
"X I u.s.s.s.9.^ ^ ^ ^ ^ ^ ^ ^ ^ ^ ^ ^ ^ ^ D .           D ^ 8.s.s.s.p.} ^ ^ ^ ^ ^ ^ ^ ^ ^ ^ ^ ^ ~ 8 ",
"- ! e.s.s.s.8.^ ^ ^ ^ ^ ^ ^ ^ ^ ^ ^ ^ ^ ^ U -           H ^ 3.s.s.s.i.] ^ ^ ^ ^ ^ ^ ^ ^ ^ ^ ^ ^ ~ 9 ",
"> Q X.i.s.t.[ ^ ^ ^ ^ ^ ^ ^ ^ ^ ^ ^ ^ ^ ^ E ,           H ^ ' r.s.s.9./ ^ ^ ^ ^ ^ ^ ^ ^ ^ ^ ^ ^ Q 8 ",
"9 ~ ^ } ..' ^ ^ ^ ^ ^ ^ ^ ^ ^ ^ ^ ^ ^ ^ ^ Y :           D ^ ^ ] 7.3.) ^ ^ ^ ^ ^ ^ ^ ^ ^ ^ ^ ^ ^ Y : ",
"9 ~ ^ ^ ^ ^ ^ ^ ^ ^ ^ ^ ^ ^ ^ ^ ^ ^ ^ ^ ^ P @           s ^ ^ ^ ^ ^ ^ ^ ^ ^ ^ ^ ^ ^ ^ ^ ^ ^ ^ ^ P   ",
"> Q ^ ^ ^ ^ ^ ^ ^ ^ ^ ^ ^ ^ ^ ^ ^ ^ ^ ^ ^ D             > E ^ ^ ^ ^ ^ ^ ^ ^ ^ ^ ^ ^ ^ ^ ^ ^ ^ ^ S   ",
"; T ^ ^ ^ ^ ^ ^ ^ ^ ^ ^ ^ ^ ^ ^ ^ ^ ^ ^ ^ i             X F ^ ^ ^ ^ ^ ^ ^ ^ ^ ^ ^ ^ ^ ^ ^ ^ ^ R 9   ",
"+ P ^ ^ ^ ^ ^ ^ ^ ^ ^ ^ ^ ^ ^ ^ ^ ^ ^ ^ E :               8 T ^ ^ ^ ^ ^ ^ ^ ^ ^ ^ ^ ^ ^ ^ ^ ^ D     ",
". D ^ ^ ^ ^ ^ ^ ^ ^ ^ ^ ^ ^ ^ ^ ^ ^ ^ ^ K X                 p ~ ^ ^ ^ ^ ^ ^ ^ ^ ^ ^ ^ ^ ^ ^ Y :     ",
"  i ^ ^ ^ ^ ^ ^ ^ ^ ^ ^ ^ ^ ^ ^ ^ ^ ^ ^ i                     s Q ^ ^ ^ ^ ^ ^ ^ ^ ^ ^ ^ ^ ~ t       ",
"  ; T ^ ^ ^ ^ ^ ^ ^ ^ ^ ^ ^ ^ ^ ^ ^ ^ Y -                       u Y ^ ^ ^ ^ ^ ^ ^ ^ ^ ^ ~ p .       ",
"  . s ^ ^ ^ ^ ^ ^ ^ ^ ^ ^ ^ ^ ^ ^ ^ ^ A .                         > H ^ ^ ^ ^ ^ ^ ^ ^ U t           ",
"    + D ^ ^ ^ ^ ^ ^ ^ ^ ^ ^ ^ ^ ^ ^ T ;                             + i L E ~ Q T K p -             ",
"      + S ^ ^ ^ ^ Q Y ^ ^ ^ ^ ^ ^ ^ s .                                 + : 9 > - X                 ",
"        X u K P S > # F ~ ^ ^ ^ ^ D +                                                               ",
"            X + .     + t K R U p +                                                                 ",
"                          X ; -                                                                     "
};
