/* XPM */
static char *_8ffe645b15c4e4aa184d6b072dd3a33Y6uydVc0pk6aN3Fw[] = {
/* columns rows colors chars-per-pixel */
"20 20 185 2 ",
"   c black",
".  c #EFAA0B",
"X  c #FFFF42",
"o  c #FCED16",
"O  c #FDF423",
"+  c #FDF126",
"@  c #FDF222",
"#  c #FDF219",
"$  c #F20000",
"%  c #FDDE06",
"&  c #FCDB0B",
"*  c #F6A200",
"=  c #FFFF20",
"-  c #FDF623",
";  c #F6CF00",
":  c #F7D609",
">  c #FAC312",
",  c #F9AB00",
"<  c #FEFF29",
"1  c #FFFFF3",
"2  c #F8D004",
"3  c #FBD011",
"4  c #FEFF00",
"5  c #FEFE15",
"6  c #FFF81E",
"7  c #F7BD0F",
"8  c #EC00B2",
"9  c #FBD010",
"0  c #FDD913",
"q  c #FDCE10",
"w  c #FCEE09",
"e  c #FFE10C",
"r  c #FCB923",
"t  c #FEFB07",
"y  c #FFFF0D",
"u  c #FCC40D",
"i  c #FEFB0C",
"p  c #FFFF40",
"a  c #FBBF08",
"s  c #FDEE0F",
"d  c #FFD201",
"f  c #FBB616",
"g  c #FDDB0A",
"h  c #FCBB0A",
"j  c #F29452",
"k  c #F2FF7B",
"l  c #FEDA11",
"z  c #F7AC12",
"x  c #F6A435",
"c  c #FED106",
"v  c #FBB411",
"b  c #F7FF00",
"n  c #F8AC0D",
"m  c #FBBC06",
"M  c #FDBF11",
"N  c #F5AA10",
"B  c #FFFF7E",
"V  c #F7A611",
"C  c #FCB30D",
"Z  c #F39C1F",
"A  c #EE9A0C",
"S  c #EC9209",
"D  c #EF9D0B",
"F  c #F9B51A",
"G  c #6F0000",
"H  c white",
"J  c #F9AD19",
"K  c #F39E11",
"L  c #F6A316",
"P  c #F09A0B",
"I  c #E6780E",
"U  c #E4690C",
"Y  c #E8870F",
"T  c #EB8F0F",
"R  c #ED8C0A",
"E  c #ED820A",
"W  c #ED870A",
"Q  c #FBE409",
"!  c #FDF020",
"~  c #FDED23",
"^  c #FDEE20",
"/  c #FCEC11",
"(  c #FDF317",
")  c #FEFA27",
"_  c #FEFD2D",
"`  c #FEFD2C",
"'  c #FFFD2B",
"]  c #FEFB28",
"[  c #FDEF1A",
"{  c #FDEA12",
"}  c #FEFB27",
"|  c #FEF724",
" . c #FDE612",
".. c #FAC200",
"X. c #FEF41B",
"o. c #FEE91B",
"O. c #FDD412",
"+. c #FBE906",
"@. c #FEFB1E",
"#. c #FFE61F",
"$. c #FED710",
"%. c #FCEC07",
"&. c #FFFD1C",
"*. c #FED30C",
"=. c #FDEE0A",
"-. c #FFFD16",
";. c #FECB0A",
":. c #FCE90F",
">. c #FFFA10",
",. c #FFCD16",
"<. c #FEC30B",
"1. c #FCD408",
"2. c #FFEB0F",
"3. c #FDC10F",
"4. c #FBB80C",
"5. c #FED30C",
"6. c #FED814",
"7. c None",
"8. c #FAB210",
"9. c #F4A610",
"0. c #FAB714",
"q. c #FAB80C",
"w. c #FAB612",
"e. c #FBAE18",
"r. c #F9AB15",
"t. c #F6A40E",
"y. c #EC940B",
"u. c #ED9714",
"i. c #F09911",
"p. c #F39A10",
"a. c #F39C13",
"s. c #F09810",
"d. c #FFFF35",
"f. c #FFFF32",
"g. c #FFFF25",
"h. c #FFFF20",
"j. c #FFFF26",
"k. c #FFFE3C",
"l. c #FFFF55",
"z. c #FFFF4E",
"x. c #FFFF31",
"c. c #FFFF1D",
"v. c #FFFF21",
"b. c #FFFA28",
"n. c #FFFF54",
"m. c #FFFF78",
"M. c #FFFF6B",
"N. c #FFFF43",
"B. c #FFFF2A",
"V. c #FFF731",
"C. c #FFFF58",
"Z. c #FFFF7C",
"A. c #FFFF6D",
"S. c #FFFF44",
"D. c #FFFD31",
"F. c #FFF037",
"G. c #FFE020",
"H. c #FFFF42",
"J. c #FFFF5F",
"K. c #FFFF34",
"L. c #FFFE22",
"P. c #FFF42C",
"I. c #FFE431",
"U. c #FFD81E",
"Y. c #FFFF24",
"T. c #FFFF2E",
"R. c #FFFC1B",
"E. c #FFF313",
"W. c #FFE31E",
"Q. c #FFD723",
"!. c #FFF516",
"~. c #FFF818",
"^. c #FFF413",
"/. c #FFEC0A",
"(. c #FFDF09",
"). c #FFD112",
"_. c #FFCA17",
"`. c #FFDE11",
"'. c #FFDC0F",
"]. c #FFD30C",
"[. c #FFC70D",
"{. c #FFC013",
"}. c #FAB111",
"|. c #FBAF16",
" X c white",
/* pixels */
"                                        ",
"                                        ",
"          . X o O + @ # $ %             ",
"        & * = Q ! ~ ^ / - ; :           ",
"      > , < ( ) _ ` ' ] [ 1 2 3         ",
"      4 5 { } d.f.g.h.j.|  .6 7 8       ",
"      9 ..X.k.l.z.x.c.v.b.o.O.0 q       ",
"      w +.@.n.m.M.N.j.B.V.#.$.e r       ",
"      t %.&.C.Z.A.S.B.D.F.G.*.y u       ",
"      i =.-.H.J.n.K.L.P.I.U.;.p a       ",
"      s :.>.Y.d.T.R.E.W.Q.,.<.d f       ",
"      g 1.2.!.~.^./.(.)._.3.4.h j       ",
"      k l 5.6.`.'.].[.{.7.8.9.z x       ",
"      c v b 0.q.w.}.|.e.r.t.n m         ",
"        M N B y.u.i.p.a.s.V C Z         ",
"          A S D F G H J K L P           ",
"            I U Y T R E W               ",
"                                        ",
"                                        ",
"                                        "
};
