/* XPM */
static char *_625b4be480d425aa085eab6b7ee5b5c4HsSvHPGRbuiEnvp[] = {
/* columns rows colors chars-per-pixel */
"50 50 47 1 ",
"  c None",
". c black",
"X c #3B3314",
"o c #3B3414",
"O c #D7BB4B",
"+ c #FFDE59",
"@ c #FFDF59",
"# c #FFE059",
"$ c #FFE05A",
"% c #FFE15A",
"& c #FFE05B",
"* c #FFE35B",
"= c #FFE15D",
"- c #FFE25C",
"; c #FFE25F",
": c #FFE35F",
"> c #FFE261",
", c #FFE262",
"< c #FFE269",
"1 c #FFE570",
"2 c #FFE573",
"3 c #FFE579",
"4 c #FFE679",
"5 c #FFE67B",
"6 c #FFE67E",
"7 c #FFE77E",
"8 c #FFE77F",
"9 c #FFE784",
"0 c #FFE685",
"q c #FFE881",
"w c #FFE986",
"e c #FFE889",
"r c #FFEA89",
"t c #FFE990",
"y c #FFEC93",
"u c #FFEC95",
"i c #FFEB9E",
"p c #FFEDA3",
"a c #FFEFB0",
"s c #FFF1B8",
"d c #FFF1BA",
"f c #FFF4CA",
"g c #FFF7D9",
"h c #FFF8DB",
"j c #FFFAE9",
"k c #FFFBEA",
"l c #FFFCF0",
/* pixels */
"                                                  ",
"                                                  ",
"                                                  ",
"                                                  ",
"                                                  ",
"                                                  ",
"                                                  ",
"                                                  ",
"                                                  ",
"        2e                              q5        ",
"       0+%e                           jq%+t       ",
"      p+++%e                         jq%++%a      ",
"     f%++++%el                      jq%++++-g     ",
"     5++++++%el                    jq%++++++w     ",
"    d%+++++++%el                  jq%+++++++%     ",
"    2+++++++++%el                jq%+++++++++7    ",
"    %++++++++++%el              jq%++++++++++-    ",
"   u++++++++++++%el            jq%++++++++++++    ",
"   <+++++++++++++%el          jq%+++++++++++++    ",
"  h-++++++++++++++%el        jq%++++++++++++++-   ",
"  d+++++Oo.oO++++++%el      jq%++++++++++++++++   ",
"  i+++++X...X+++++++%e     jq%+++++++++++++++++   ",
"  e+++++.....++++++++%el  jq%++++++++++++++++++   ",
"  5+++++X...X+++++++++%eljq%+++++++++++++++++++   ",
"  5+++++OX.XO++++++++++%07%++++++++++++++++++++   ",
"  5++++++++++++++++++++++++++++++++++++++++++++   ",
"  7++++++++++++++++++++++++++++++++++++++++++++   ",
"  y++++++++++++++++++++++++++++++++++++++++++++   ",
"  a++++++++++++++++++++++++++++++++++++++++++++   ",
"   %+++++++++++++++++++++++++++++++++++++++++++   ",
"   >++++++++++++++++++++++++++++++++++++++++++    ",
"   7++++++++++++++++++++++++++++++++++++++++++    ",
"    %++++++++++++++++++++++++++++++++++++++++%    ",
"    >++++++++++++++++++++++++++++++++++++++++     ",
"     ++++++++++++++++++++++++++++++++++++++++     ",
"      ++++++++++++++++++++++++++++++++++++++      ",
"      %++++++++++++++++++++++++++++++++++++%      ",
"       ++++++++++++++++++++++++++++++++++++       ",
"        ++++++++++++++++++++++++++++++++++        ",
"         ++++++++++++++++++++++++++++++++         ",
"          ++++++++++++++++++++++++++++++          ",
"           ++++++++++++++++++++++++++++           ",
"            %++++++++++++++++++++++++%            ",
"              ++++++++++++++++++++++              ",
"                ++++++++++++++++++                ",
"                  +++++++++++++%                  ",
"                     %+%+++%                      ",
"                                                  ",
"                                                  ",
"                                                  "
};
