/* XPM */
static char *f7e0d505d612408ddf10a834f2123428Nt7YGfqRXGrbhRE0[] = {
/* columns rows colors chars-per-pixel */
"50 50 120 2 ",
"   c None",
".  c black",
"X  c #0F0D05",
"o  c #7F6F2C",
"O  c #83722D",
"+  c #83722E",
"@  c #BBA241",
"#  c #BBA341",
"$  c #FFDE59",
"%  c #FFDF59",
"&  c #FFDF5A",
"*  c #FFDF5B",
"=  c #FFE059",
"-  c #FFE05A",
";  c #FFE15A",
":  c #FFE05B",
">  c #FFE15B",
",  c #FFE25A",
"<  c #FFE25B",
"1  c #FFE15C",
"2  c #FFE15D",
"3  c #FFE25D",
"4  c #FFE35D",
"5  c #FFE05E",
"6  c #FFE15E",
"7  c #FFE25E",
"8  c #FFE35E",
"9  c #FFE25F",
"0  c #FFE35F",
"q  c #FFE360",
"w  c #FFE361",
"e  c #FFE062",
"r  c #FFE162",
"t  c #FFE063",
"y  c #FFE262",
"u  c #FFE362",
"i  c #FFE363",
"p  c #FFE560",
"a  c #FFE364",
"s  c #FFE167",
"d  c #FFE266",
"f  c #FFE366",
"g  c #FFE267",
"h  c #FFE367",
"j  c #FFE466",
"k  c #FFE268",
"l  c #FFE269",
"z  c #FFE36B",
"x  c #FFE36C",
"c  c #FFE36F",
"v  c #FFE46F",
"b  c #FFE573",
"n  c #FFE574",
"m  c #FFE575",
"M  c #FFE576",
"N  c #FFE676",
"B  c #FFE677",
"V  c #FFE578",
"C  c #FFE579",
"Z  c #FFE57A",
"A  c #FFE77A",
"S  c #FFE67B",
"D  c #FFE77C",
"F  c #FFE57E",
"G  c #FFE780",
"H  c #FFE781",
"J  c #FFE684",
"K  c #FFE786",
"L  c #FFE880",
"P  c #FFE980",
"I  c #FFE882",
"U  c #FFE984",
"Y  c #FFE885",
"T  c #FFE88A",
"R  c #FFE88B",
"E  c #FFE98B",
"W  c #FFEA8A",
"Q  c #FFEB8A",
"!  c #FFE88E",
"~  c #FFE88F",
"^  c #FFEA8F",
"/  c #FFE990",
"(  c #FFE992",
")  c #FFE993",
"_  c #FFEC91",
"`  c #FFE994",
"'  c #FFEA97",
"]  c #FFEA9A",
"[  c #FFEB9A",
"{  c #FFEB9F",
"}  c #FFECA2",
"|  c #FFEDA3",
" . c #FFEFA2",
".. c #FFEDA4",
"X. c #FFECA5",
"o. c #FFEEA5",
"O. c #FFEFA8",
"+. c #FFEEA9",
"@. c #FFEDAA",
"#. c #FFEEAA",
"$. c #FFEEAC",
"%. c #FFEFAD",
"&. c #FFEFAE",
"*. c #FFEEAF",
"=. c #FFF0B3",
"-. c #FFF1B3",
";. c #FFF0B5",
":. c #FFF1B9",
">. c #FFF1BA",
",. c #FFF3BB",
"<. c #FFF2BC",
"1. c #FFF2BE",
"2. c #FFF2BF",
"3. c #FFF2C1",
"4. c #FFF3C4",
"5. c #FFF3C5",
"6. c #FFF4C8",
"7. c #FFF5CD",
"8. c #FFF6D1",
"9. c #FFFAE6",
/* pixels */
"                                                                                                    ",
"                                                                                                    ",
"                                                                                                    ",
"                                    $.U r $ ; $ $ $ ; ; $ r Z O.                                    ",
"                                L 4 $ $ $ $ $ $ $ $ $ $ $ $ $ $ 4 Z                                 ",
"                            B ; $ $ $ $ $ $ $ $ $ $ $ $ $ $ $ $ $ $ ; B                             ",
"                        _ 4 $ $ $ $ $ $ $ $ $ $ $ $ $ $ $ $ $ $ $ $ $ $ ; T                         ",
"                      B ; $ $ $ $ $ $ $ $ $ $ $ $ $ $ $ $ $ $ $ $ $ $ $ $ $ z                       ",
"                    4 $ $ $ $ $ $ $ $ $ $ $ $ $ $ $ $ $ $ $ $ $ $ $ $ $ $ $ $ ; 3.                  ",
"                  4 $ $ $ $ $ $ $ $ $ $ $ $ $ $ $ $ $ $ $ $ $ $ $ $ $ $ $ $ $ $ ; :.                ",
"                p $ $ $ $ $ $ $ $ $ $ $ $ $ $ $ $ $ $ $ $ $ $ $ $ $ $ $ $ $ $ $ $ ; 1.              ",
"              j $ $ $ $ $ $ $ $ $ $ $ $ $ $ $ $ $ $ $ $ $ $ $ $ $ $ $ $ $ $ $ $ $ $ r               ",
"            T $ $ $ $ $ $ $ $ $ $ $ $ $ $ $ $ $ $ $ $ $ $ $ $ $ $ $ $ $ $ $ $ $ $ $ $ B             ",
"            ; $ $ $ $ $ $ $ $ $ $ $ $ $ $ $ $ $ $ $ $ $ $ $ $ $ $ $ $ $ $ $ $ $ $ $ $ ; O.          ",
"          c $ $ $ $ $ $ $ $ $ $ $ $ $ $ $ $ $ $ $ $ $ $ $ $ $ $ $ $ $ $ $ $ $ $ $ $ $ $ r           ",
"        $.; $ $ $ $ $ $ $ $ $ $ $ $ $ $ $ $ $ $ $ $ $ $ $ $ $ $ $ $ $ $ $ $ $ $ $ $ $ $ $ }         ",
"        v $ $ $ $ $ $ $ $ $ $ $ $ $ $ $ $ $ $ $ $ $ $ $ $ $ $ $ $ $ $ $ $ $ $ $ $ $ $ $ $ r         ",
"        ; $ $ $ $ $ $ $ $ $ $ $ $ $ $ $ $ $ $ $ $ $ $ $ $ $ $ $ $ $ $ $ $ $ $ $ $ $ $ $ $ $         ",
"      ^ $ $ $ $ $ $ $ $ $ $ $ $ $ $ $ $ $ $ $ $ $ $ $ $ $ $ $ $ $ $ $ $ $ $ $ $ $ $ $ $ $ $ L       ",
"      z $ $ $ $ $ $ $ $ $ $ $ $ $ $ $ $ $ $ $ $ $ $ $ $ $ $ $ $ $ $ $ $ $ $ $ $ $ $ $ $ $ $ $       ",
"      ; $ $ $ $ $ $ $ $ $ $ $ $ $ $ $ $ $ $ $ $ $ $ $ $ $ $ $ $ $ $ $ $ $ $ $ $ $ $ $ $ $ $ $       ",
"      $ $ $ $ $ $ $ $ $ $ $ $ $ $ $ $ $ $ $ $ $ $ $ $ $ $ $ $ $ $ $ $ $ $ $ $ $ $ $ $ $ $ $ $       ",
"    X.$ $ $ $ $ $ $ $ $ $ $ $ $ $ $ $ $ $ $ $ $ $ $ $ $ $ $ $ $ $ $ $ $ $ $ $ @ o @ $ $ $ $ $ /     ",
"    / $ $ $ $ $ $ $ $ $ $ $ $ $ $ $ $ $ $ $ $ $ $ $ $ $ $ $ $ $ $ $ $ $ $ $ O . . . O $ $ $ $ H     ",
"    T $ $ $ $ $ $ $ $ $ $ $ $ $ $ $ $ $ $ $ $ $ $ $ $ $ $ $ $ $ $ $ $ $ $ $ X . . . X $ $ $ $ B     ",
"    U $ $ $ $ $ $ $ $ $ $ $ $ $ $ $ $ $ $ $ $ ; D K ; $ $ $ $ $ $ $ $ $ $ $ X . . . X $ $ $ $ Z     ",
"    ^ $ $ $ $ $ $ $ $ $ $ $ $ $ $ $ $ $ $ $ ; Z 9.  / $ $ $ $ $ $ $ $ $ $ $ O . . . O $ $ $ $ Z     ",
"    ` $ $ $ $ $ $ $ $ $ $ $ $ $ $ $ $ $ $ $ B         ` ; $ $ $ $ $ $ $ $ $ $ @ o @ $ $ $ $ $ T     ",
"    $.$ $ $ $ $ $ $ $ $ $ $ $ $ $ $ $ $ $ b             ] ; $ $ $ $ $ $ $ $ $ $ $ $ $ $ $ $ $ ]     ",
"      ; $ $ $ $ $ $ $ $ $ $ $ $ $ $ $ $ c                 { 4 $ $ $ $ $ $ $ $ $ $ $ $ $ $ $ ;       ",
"      $ $ $ $ $ $ $ $ $ $ $ $ $ $ $ $ z                     X.4 $ $ $ $ $ $ $ $ $ $ $ $ $ $ $       ",
"      B $ $ $ $ $ $ $ $ $ $ $ $ $ $ z 8.                      O.4 $ $ $ $ $ $ $ $ $ $ $ $ $ a       ",
"      } ; $ $ $ $ $ $ $ $ $ $ $ $ a 7.                          $.r $ $ $ $ $ $ $ $ $ $ $ $ /       ",
"        $ $ $ $ $ $ $ $ $ $ $ $ a 6.                              ;.r $ $ $ $ $ $ $ $ $ $ $         ",
"        H $ $ $ $ $ $ $ $ $ $ a 4.                                  :.r $ $ $ $ $ $ $ $ $ B         ",
"          4 $ $ $ $ $ $ $ $ r 1.                                      1.a $ $ $ $ $ $ $ ;           ",
"          L $ $ $ $ $ $ $ r :.                                          4.a $ $ $ $ $ $ B           ",
"            4 $ $ $ $ $ r -.                                                a $ $ $ $ 4             ",
"            -.; $ $ $ 4 $.                                                    z $ $ ; X.            ",
"              ^ $ $ 4 O.                                                        c $ K               ",
"                D 4 }                                                             T                 ",
"                                                                                                    ",
"                                                                                                    ",
"                                                                                                    ",
"                                                                                                    ",
"                                                                                                    ",
"                                                                                                    ",
"                                                                                                    ",
"                                                                                                    ",
"                                                                                                    "
};
