/* XPM */
static char *result[] = {
/* columns rows colors chars-per-pixel */
"50 50 62 1 ",
"  c #FFDE59",
". c #FFDE5A",
"X c #FFDE5B",
"o c #FFDE5C",
"O c #FFDE5D",
"+ c #FFDF5F",
"@ c #FFDF61",
"# c #FFDF62",
"$ c #FFE062",
"% c #FFE065",
"& c #FFE066",
"* c #FFE167",
"= c #FFE169",
"- c #FFE16A",
"; c #FFE26D",
": c #FFE26E",
"> c #FFE26F",
", c #FFE271",
"< c #FFE373",
"1 c #FFE374",
"2 c #FFE377",
"3 c #FFE475",
"4 c #FFE477",
"5 c #FFE478",
"6 c #FFE479",
"7 c #FFE47A",
"8 c #FFE57D",
"9 c #FFE57E",
"0 c #FFE680",
"q c #FFE681",
"w c #FFE683",
"e c #FFE684",
"r c #FFE787",
"t c #FFE788",
"y c #FFE789",
"u c #FFE78A",
"i c #FFE88C",
"p c #FFE88F",
"a c #FFE98F",
"s c #FFE990",
"d c #FFE991",
"f c #FFE992",
"g c #FFE994",
"h c #FFEA95",
"j c #FFEA96",
"k c #FFEA97",
"l c #FFEB9A",
"z c #FFEB9C",
"x c #FFEB9F",
"c c #FFEC9F",
"v c #FFECA2",
"b c #FFECA3",
"n c #FFEDA4",
"m c #FFEDA5",
"M c #FFEDA7",
"N c #FFEDA8",
"B c #FFEEA8",
"V c #FFEEA9",
"C c #FFEEAA",
"Z c #FFEEAB",
"A c #FFEEAD",
"S c None",
/* pixels */
"SSSSSSSSSSSSSSSSSSSSSSSSSSSSSSSSSSSSSSSSSSSSSSSSSS",
"SSSSSSSSSSSSSSSSSSSSSSSSSSSSSSSSSSSSSSSSSSSSSSSSSS",
"SSSSSSSSSSSSSSSSSSSSSSSVnbNSSSSSSSSSSSSSSSSSSSSSSS",
"SSSSSSSSSSSSSSSSSSa&          +wSSSSSSSSSSSSSSSSSS",
"SSSSSSSSSSSSSSSc#                XiSSSSSSSSSSSSSSS",
"SSSSSSSSSSSSSA+                    .dSSSSSSSSSSSSS",
"SSSSSSSSSSSS5                        $SSSSSSSSSSSS",
"SSSSSSSSSSSO                           zSSSSSSSSSS",
"SSSSSSSSSS                              uSSSSSSSSS",
"SSSSSSSSS                                qSSSSSSSS",
"SSSSSSSS                                  iSSSSSSS",
"SSSSSSS                                    BSSSSSS",
"SSSSSS=                                    .SSSSSS",
"SSSSSx                                      3SSSSS",
"SSSSS.                                       SSSSS",
"SSSSf                                        -SSSS",
"SSSSX                                         SSSS",
"SSSZ                                          qSSS",
"SSS;                                          .SSS",
"SSS                                            SSS",
"SSS                                            MSS",
"SSm                                            jSS",
"SSp                                            qSS",
"SS8                                            1SS",
"SS1                                            ;SS",
"SS>                                            >SS",
"SS4                                            >SS",
"SS0                                            7SS",
"SSh                                            ySS",
"SSS                                            zSS",
"SSS                                            CSS",
"SSSX                                           SSS",
"SSSe                                          #SSS",
"SSSS                                          lSSS",
"SSSS@                                         SSSS",
"SSSSS                                        0SSSS",
"SSSSS*                                       SSSSS",
"SSSSSS                                      gSSSSS",
"SSSSSSr                                    =SSSSSS",
"SSSSSSS=                                  .SSSSSSS",
"SSSSSSSS+                                 SSSSSSSS",
"SSSSSSSSSo                               NSSSSSSSS",
"SSSSSSSSSS%                             SSSSSSSSSS",
"SSSSSSSSSSS6                          %SSSSSSSSSSS",
"SSSSSSSSSSSSvX                       eSSSSSSSSSSSS",
"SSSSSSSSSSSSSSt                    ,SSSSSSSSSSSSSS",
"SSSSSSSSSSSSSSSSu                <SSSSSSSSSSSSSSSS",
"SSSSSSSSSSSSSSSSSSSk9::::::::2sSSSSSSSSSSSSSSSSSSS",
"SSSSSSSSSSSSSSSSSSSSSSSSSSSSSSSSSSSSSSSSSSSSSSSSSS",
"SSSSSSSSSSSSSSSSSSSSSSSSSSSSSSSSSSSSSSSSSSSSSSSSSS"
};
