/* XPM */
static char *_8957cef91674664ac4cd0e551d26c54BdJdFfxX1zdx03xv[] = {
/* columns rows colors chars-per-pixel */
"50 50 134 2 ",
"   c None",
".  c black",
"X  c #070602",
"o  c #080702",
"O  c #352E12",
"+  c #776829",
"@  c #7F6F2C",
"#  c #A08B38",
"$  c #B39B3E",
"%  c #B39C3E",
"&  c #C3A944",
"*  c #C3AA44",
"=  c #FDDD58",
"-  c #FFDE58",
";  c #FFDE59",
":  c #FFDF59",
">  c #FFDF5A",
",  c #FFDF5B",
"<  c #FFDF5D",
"1  c #FFE749",
"2  c #FFE44C",
"3  c #FFE54F",
"4  c #FFF34E",
"5  c #FFE050",
"6  c #FFE151",
"7  c #FFEC50",
"8  c #FFEB55",
"9  c #FFE857",
"0  c #FFE059",
"q  c #FFE159",
"w  c #FFE05A",
"e  c #FFE15A",
"r  c #FFE05B",
"t  c #FFE15B",
"y  c #FFE25A",
"u  c #FFE45A",
"i  c #FFE05C",
"p  c #FFE15C",
"a  c #FFE05D",
"s  c #FFE15D",
"d  c #FFE25D",
"f  c #FFE35D",
"g  c #FFE05E",
"h  c #FFE15E",
"j  c #FFE35F",
"k  c #FFE55F",
"l  c #FFE65F",
"z  c #FFE958",
"x  c #FFEA5A",
"c  c #FFEC59",
"v  c #FFEC5A",
"b  c #FFE95D",
"n  c #FFEA5D",
"m  c #FFE85E",
"M  c #FFE85F",
"N  c #FFEA5F",
"B  c #FFEC5C",
"V  c #FFED5E",
"C  c #FFF453",
"Z  c #FFF056",
"A  c #FFF256",
"S  c #FFF955",
"D  c #FFF25A",
"F  c #FFF15F",
"G  c #FFF35E",
"H  c #FFF55D",
"J  c #FFF45F",
"K  c #FFF95D",
"L  c #FFFB5C",
"P  c #FFF85E",
"I  c #FFE060",
"U  c #FFE360",
"Y  c #FFE361",
"T  c #FFE262",
"R  c #FFE362",
"E  c #FFE263",
"W  c #FFE460",
"Q  c #FFE660",
"!  c #FFE462",
"~  c #FFE762",
"^  c #FFE767",
"/  c #FFE861",
"(  c #FFED61",
")  c #FFE568",
"_  c #FFE66A",
"`  c #FFE66E",
"'  c #FFE76E",
"]  c #FFE969",
"[  c #FFEE6B",
"{  c #FFF264",
"}  c #FFF366",
"|  c #FFF861",
" . c #FFFC61",
".. c #FFF865",
"X. c #FFF966",
"o. c #FFF867",
"O. c #FFF66B",
"+. c #FFF06D",
"@. c #FFF26D",
"#. c #FFF36D",
"$. c #FFF96D",
"%. c #FFFB6F",
"&. c #FFF677",
"*. c #FFFE72",
"=. c #FFFE73",
"-. c #FFF874",
";. c #FFF975",
":. c #FFFA77",
">. c #FFFD76",
",. c #FFF579",
"<. c #FFF678",
"1. c #FFF57A",
"2. c #FFFB78",
"3. c #FFFB7B",
"4. c #FFFC79",
"5. c #FFFC7A",
"6. c #FFFC7B",
"7. c #FFF87D",
"8. c #FFFC7E",
"9. c #FFF381",
"0. c #FFF98A",
"q. c #FFFF8A",
"w. c #FFF792",
"e. c #FFF798",
"r. c #FFF69C",
"t. c #FFF49F",
"y. c #FFF4A1",
"u. c #FFF3A4",
"i. c #FFF1A7",
"p. c #FFF3A6",
"a. c #FFF4A4",
"s. c #FFF4A7",
"d. c #FFF2A8",
"f. c #FFF2A9",
/* pixels */
"                                                                                                    ",
"                                                                                                    ",
"                                                J c z 8 z B G P                                     ",
"                                        [ W w w ; ; ; ; ; ; ; ; w < ' ..                            ",
"                                    N i ; ; ; ; ; ; ; ; ; ; ; ; ; ; ; w < {                         ",
"                                / w ; ; ; ; ; ; ; ; ; ; ; ; ; ; ; ; ; ; ; ; i @.                    ",
"                            -.W ; ; ; ; ; ; ; ; ; ; ; ; ; ; ; ; ; ; ; ; ; ; ; ; '                   ",
"                          ( w ; ; ; ; ; ; ; ; ; ; ; ; ; ; ; ; ; ; ; ; ; ; ; ; ; ; R 8.              ",
"                        c w ; ; ; ; ; ; ; ; ; ; ; ; ; ; ; ; ; ; ; ; ; ; ; ; ; ; ; ; ; =.            ",
"                      8 w ; ; ; ; ; ; ; ; ; ; ; ; ; * @ % ; ; ; ; ; ; ; ; ; ; ; ; ; R               ",
"                    7 w ; ; ; ; ; ; ; ; ; ; ; ; ; # . . . + ; ; ; ; ; ; ; ; ; ; ; R >.              ",
"                    i ; ; ; ; ; ; ; ; ; ; ; ; ; ; O . . . o ; ; ; ; ; ; ; ; ; ; R 6.                ",
"                  k ; ; ; ; ; ; ; ; ; ; ; ; ; ; ; O . . . X ; ; ; ; ; ; ; ; ; R 2.                  ",
"                W ; ; ; ; ; ; ; ; ; ; ; ; ; ; ; ; # . . . + ; ; ; ; ; ; ; ; R 6.                    ",
"                w ; ; ; ; ; ; ; ; ; ; ; ; ; ; ; ; ; * @ $ ; ; ; ; ; ; ; ; R 6.                      ",
"              _ ; ; ; ; ; ; ; ; ; ; ; ; ; ; ; ; ; ; ; ; ; ; ; ; ; ; ; ; R 2.                        ",
"              ; ; ; ; ; ; ; ; ; ; ; ; ; ; ; ; ; ; ; ; ; ; ; ; ; ; ; ; R 2.                          ",
"            ] ; ; ; ; ; ; ; ; ; ; ; ; ; ; ; ; ; ; ; ; ; ; ; ; ; ; ; R 2.                            ",
"            R ; ; ; ; ; ; ; ; ; ; ; ; ; ; ; ; ; ; ; ; ; ; ; ; ; ; R -.                              ",
"            w ; ; ; ; ; ; ; ; ; ; ; ; ; ; ; ; ; ; ; ; ; ; ; ; ; R -.                                ",
"          %.w ; ; ; ; ; ; ; ; ; ; ; ; ; ; ; ; ; ; ; ; ; ; ; ; i 1.                                  ",
"          { ; ; ; ; ; ; ; ; ; ; ; ; ; ; ; ; ; ; ; ; ; ; ; ; i                                       ",
"          N ; ; ; ; ; ; ; ; ; ; ; ; ; ; ; ; ; ; ; ; ; ; ; R                                         ",
"          N ; ; ; ; ; ; ; ; ; ; ; ; ; ; ; ; ; ; ; ; ; ; R 9.                                        ",
"          R ; ; ; ; ; ; ; ; ; ; ; ; ; ; ; ; ; ; ; ; ; i s.                                          ",
"          k ; ; ; ; ; ; ; ; ; ; ; ; ; ; ; ; ; ; ; ; ; i i.                                          ",
"          N ; ; ; ; ; ; ; ; ; ; ; ; ; ; ; ; ; ; ; ; ; ; i i.                                        ",
"          G ; ; ; ; ; ; ; ; ; ; ; ; ; ; ; ; ; ; ; ; ; ; ; i f.                                      ",
"          ..; ; ; ; ; ; ; ; ; ; ; ; ; ; ; ; ; ; ; ; ; ; ; ; i f.                                    ",
"            w ; ; ; ; ; ; ; ; ; ; ; ; ; ; ; ; ; ; ; ; ; ; ; ; i f.                                  ",
"            ; ; ; ; ; ; ; ; ; ; ; ; ; ; ; ; ; ; ; ; ; ; ; ; ; ; i f.                                ",
"            N ; ; ; ; ; ; ; ; ; ; ; ; ; ; ; ; ; ; ; ; ; ; ; ; ; ; i i.                              ",
"            %.; ; ; ; ; ; ; ; ; ; ; ; ; ; ; ; ; ; ; ; ; ; ; ; ; ; ; i s.                            ",
"              ; ; ; ; ; ; ; ; ; ; ; ; ; ; ; ; ; ; ; ; ; ; ; ; ; ; ; ; i y.                          ",
"              @.; ; ; ; ; ; ; ; ; ; ; ; ; ; ; ; ; ; ; ; ; ; ; ; ; ; ; ; i r.                        ",
"                w ; ; ; ; ; ; ; ; ; ; ; ; ; ; ; ; ; ; ; ; ; ; ; ; ; ; ; ; i r.                      ",
"                @.; ; ; ; ; ; ; ; ; ; ; ; ; ; ; ; ; ; ; ; ; ; ; ; ; ; ; ; ; i e.                    ",
"                  _ ; ; ; ; ; ; ; ; ; ; ; ; ; ; ; ; ; ; ; ; ; ; ; ; ; ; ; ; ; i w.                  ",
"                  q.i ; ; ; ; ; ; ; ; ; ; ; ; ; ; ; ; ; ; ; ; ; ; ; ; ; ; ; ; ; i 0.                ",
"                    7.w ; ; ; ; ; ; ; ; ; ; ; ; ; ; ; ; ; ; ; ; ; ; ; ; ; ; ; ; ; i 6.              ",
"                      1.w ; ; ; ; ; ; ; ; ; ; ; ; ; ; ; ; ; ; ; ; ; ; ; ; ; ; ; ; ; i =.            ",
"                        1.w ; ; ; ; ; ; ; ; ; ; ; ; ; ; ; ; ; ; ; ; ; ; ; ; ; ; ; ; ;               ",
"                          &.i ; ; ; ; ; ; ; ; ; ; ; ; ; ; ; ; ; ; ; ; ; ; ; ; ; ; R                 ",
"                              ^ ; ; ; ; ; ; ; ; ; ; ; ; ; ; ; ; ; ; ; ; ; ; ; ; W                   ",
"                                O.i ; ; ; ; ; ; ; ; ; ; ; ; ; ; ; ; ; ; ; ; u ..                    ",
"                                    P w ; ; ; ; ; ; ; ; ; ; ; ; ; ; ; 5 3 |                         ",
"                                         .B ; w ; ; ; ; ; ; ; 5 3 1 4                               ",
"                                                P J D A A C S                                       ",
"                                                                                                    ",
"                                                                                                    "
};
