/* XPM */
static char *_b9894f810a84ebf939d4108d357247f2uyhLZilQLOm76Qr[] = {
/* columns rows colors chars-per-pixel */
"50 50 158 2 ",
"   c None",
".  c black",
"X  c #070602",
"o  c #080702",
"O  c #1B1809",
"+  c #675A23",
"@  c #675A24",
"#  c #8B7930",
"$  c #AF983D",
"%  c #FFFC00",
"&  c #FFFD00",
"*  c #FFFE00",
"=  c yellow",
"-  c #FFFF02",
";  c #FFFF06",
":  c #FFFF08",
">  c #FFFF09",
",  c #FFFF0A",
"<  c #FFFE0C",
"1  c #FFF711",
"2  c #FFFF17",
"3  c #FFF61D",
"4  c #FFF91A",
"5  c #FFEC2B",
"6  c #FFEA2E",
"7  c #FFEF2C",
"8  c #FAF422",
"9  c #FFF727",
"0  c #FDEF3B",
"q  c #FFE93C",
"w  c #FFE93E",
"e  c #FFEC3C",
"r  c #FFED3E",
"t  c #FFED3F",
"y  c #FFF131",
"u  c #FFF835",
"i  c #DFC24E",
"p  c #F3D354",
"a  c #FFDF52",
"s  c #FBDA57",
"d  c #FFDF56",
"f  c #FFDE59",
"g  c #FFDF59",
"h  c #FFDF5A",
"j  c #FFE340",
"k  c #FFE647",
"l  c #FFE844",
"z  c #FFE04B",
"x  c #FFE448",
"c  c #FFE749",
"v  c #FFE54B",
"b  c #FFE74B",
"n  c #FEE54D",
"m  c #FFE94A",
"M  c #F7F041",
"N  c #FFFF41",
"B  c #FFFF43",
"V  c #FFF946",
"C  c #FFFF46",
"Z  c #FFFF4D",
"A  c #FFFF4F",
"S  c #FFE652",
"D  c #FFE154",
"F  c #FEE055",
"G  c #FFE155",
"H  c #FFE057",
"J  c #FFE357",
"K  c #FFE853",
"L  c #FFE058",
"P  c #FFE059",
"I  c #FFE05A",
"U  c #FFE15A",
"Y  c #FFE05B",
"T  c #FFE15B",
"R  c #FFE25A",
"E  c #FFE35B",
"W  c #FFE15C",
"Q  c #FFE05D",
"!  c #FFE85A",
"~  c #FDEA5D",
"^  c #FFE95E",
"/  c #FFF256",
"(  c #F4F856",
")  c #FFFF51",
"_  c #FFFB57",
"`  c #FFFF57",
"'  c #FFFF58",
"]  c #FFFF5F",
"[  c #FFE360",
"{  c #FFE361",
"}  c #FFE462",
"|  c #FFE265",
" . c #FFE266",
".. c #FFEA60",
"X. c #FFE36D",
"o. c #FFE36F",
"O. c #FFEB6B",
"+. c #FFFC62",
"@. c #FCFE64",
"#. c #FFFF64",
"$. c #FFFF69",
"%. c #FFFF6E",
"&. c #FFFF6F",
"*. c #FFEE71",
"=. c #FFE679",
"-. c #FFE67B",
";. c #FFEC79",
":. c #FFFC77",
">. c #FFFF76",
",. c #FFF27A",
"<. c #FFF479",
"1. c #FFF67A",
"2. c #FFFA78",
"3. c #FFF87B",
"4. c #FFFF7A",
"5. c #FFFB7D",
"6. c #FFFF7C",
"7. c #FFE888",
"8. c #FFE88A",
"9. c #FFF683",
"0. c #FFF786",
"q. c #FFF787",
"w. c #FFF189",
"e. c #FFFF8A",
"r. c #FFF88E",
"t. c #FFFB8E",
"y. c #FCEC90",
"u. c #FFEE93",
"i. c #FFEA9A",
"p. c #FFF990",
"a. c #FFFD9D",
"s. c #FFEEAB",
"d. c #FFF5A3",
"f. c #FFFDA0",
"g. c #FFFFAA",
"h. c #FFFEAF",
"j. c #FFFFAF",
"k. c #FFF4B4",
"l. c #FFF7B4",
"z. c #FFFABE",
"x. c #FFFFBE",
"c. c #FBF1C1",
"v. c #FFF7CC",
"b. c #FFFCCB",
"n. c #EEF7DA",
"m. c #FFFDD1",
"M. c #FFFDD4",
"N. c #F1FAE7",
"B. c #FFF9E0",
"V. c #FFFEE2",
"C. c #FFFFEB",
"Z. c #FBFCF3",
"A. c #FFFCF2",
"S. c #FFFEF2",
"D. c #FFFFF9",
"F. c #FFFFFA",
"G. c #FFFFFB",
"H. c white",
/* pixels */
"                                                                                                    ",
"                                                                                                    ",
"                                      j.a.t.9.0.p.f.x.                                              ",
"                              g.1.} P f f f f f f f f G ! 1.j.                                      ",
"                          4. .f f f f f f f f f f f f f f f P K 5.                                  ",
"                      >.P P f f f f f f f f f f f f f f f f f f f G >.                              ",
"                    / G f f f f f f f f f f f f f f f f f f f f f f f ^                             ",
"                6.S f f f f f f f f f f f f f f f f f f f f f f f f f f P                           ",
"              #.m f f f f f f f f f f f f p i p f f f f f f f f f f f f f P #.                      ",
"            $.w f f f f f f f f f f f f $ o . o $ f f f f f f f f f f f f f P (                     ",
"            ) 7 j f f f f f f f f f f f O . . . O f f f f f f f f f f f f f f Q                     ",
"              _ 6 f f f f f f f f f f f X . . . X f f f f f f f f f f f f f f f P                   ",
"                +.w f f f f f f f f f f + . . . + f f f f f f f f f f f f f f f f M                 ",
"                  2.b f f f f f f f f f s # @ # s f f f f f f f f f f f f f f f f P                 ",
"                    t.S f f f f f f f f f f f f f f f f f f f f f f f f f f f f f f 0               ",
"                        ^ P f f f f f f f f f f f f f f f f f f f f f f f f f f f f d               ",
"                          O.P f f f f f f f f f f f f f f f f f f f f f f f f f f f f 9             ",
"                            *.P f f f f f f f f f f f f f f f f f f f f f f f f f f f y             ",
"                            m.,.n f f f f f f f f f f f f f f f f f f f f f f f f f f f 2           ",
"                              V.0.b a f f f f f f f f f f f f f f f f f f f f f f f f f ,           ",
"                                S.d.k z f f f f f f f f f f f f f f f f f f f f f f f f ,           ",
"                                  G.l.b G f f f f f f f f f f f f f f f f f f f f f f f ,           ",
"                                    G.z...P f f f f f f f f f f f f f f f f f f f f f f f           ",
"                                      G.b.;.P f f f f f f f f f f f f f f f f f f f f f f           ",
"                                          M.u.P f f f f f f f f f f f f f f f f f f f f f           ",
"                                          C.l.Q f f f f f f f f f f f f f f f f f f f f f           ",
"                                        H.v. .f f f f f f f f f f f f f f f f f f f f f f           ",
"                                        B.o.f f f f f f f f f f f f f f f f f f f f f f f           ",
"                                      S.-.P f f f f f f f f f f f f f f f f f f f f f f =           ",
"                                      8.P f f f f f f f f f f f f f f f f f f f f f f f =           ",
"                                    i.f f f f f f f f f f f f f f f f f f f f f f f f f =           ",
"                                  s.Q f f f f f f f f f f f f f f f f f f f f f f f f f             ",
"                                c.[ f f f f f f f f f f f f f f f f f f f f f f f f f =             ",
"                              n. .f f f f f f f f f f f f f f f f f f f f f f f f f f =             ",
"                            N.o.f f f f f f f f f f f f f f f f f f f f f f f f f f ;               ",
"                          Z.-.f f f f f f f f f f f f f f f f f f f f f f f f f f f                 ",
"                          8.P f f f f f f f f f f f f f f f f f f f f f f f f f f =                 ",
"                        u.f f f f f f f f f f f f f f f f f f f f f f f f f f f f                   ",
"                      w.Q f f f f f f f f f f f f f f f f f f f f f f f f f f f                     ",
"                    2.[ f f f f f f f f f f f f f f f f f f f f f f f f f f f =                     ",
"                    8 f f f f f f f f f f f f f f f f f f f f f f f f f f f =                       ",
"                  4 5 f f f f f f f f f f f f f f f f f f f f f f f f f f                           ",
"                  3 f f f f f f f f f f f f f f f f f f f f f f f f f f                             ",
"                    u P f f f f f f f f f f f f f f f f f f f f f f =                               ",
"                      ` r f f f f f f f f f f f f f f f f f f f =                                   ",
"                          ] r G f f f f f f f f f f f f f f =                                       ",
"                              %.V r l b f f f f f f 1 < ,                                           ",
"                                    e.%.' Z C B B Z                                                 ",
"                                                                                                    ",
"                                                                                                    "
};
