/* XPM */
static char *_5156f6254bb4f62a66d35ea6a53c35aDYDuojYPy6HKJxpg[] = {
/* columns rows colors chars-per-pixel */
"50 50 8 1 ",
"  c #0B1E3F",
". c #09234D",
"X c #082757",
"o c #072B60",
"O c #072C62",
"+ c #062F6B",
"@ c #053272",
"# c #004AAD",
/* pixels */
"##################################################",
"##################################################",
"##@XXXXXXXXXXXXXXXXXXXXXXXXXXXXXXXXXXXXXXXXXXXX+##",
"##O                                            X##",
"##O                                            X##",
"##O                                            X##",
"##O                                            X##",
"##O                                            X##",
"##O                                            X##",
"##O                                            X##",
"##O                                            X##",
"##O                                            X##",
"##O                                            X##",
"##O                                            X##",
"##O                                            X##",
"##O                                            X##",
"##O                                            X##",
"##O                                            X##",
"##O                                            X##",
"##O                                            X##",
"##O                                            X##",
"##O                                            X##",
"##O                                            X##",
"##O                                            X##",
"##O                                            X##",
"##O                                            X##",
"##O                                            X##",
"##O                                            X##",
"##O                                            X##",
"##O                                            X##",
"##O                                            X##",
"##O                                            X##",
"##O                                            X##",
"##O                                            X##",
"##O                                            X##",
"##O                                            X##",
"##O                                            X##",
"##O                                            X##",
"##O                                            X##",
"##O                                            X##",
"##O                                            X##",
"##O                                            X##",
"##O                                            X##",
"##O                                            X##",
"##O                                            X##",
"##O                                            X##",
"##O                                            X##",
"##+............................................o##",
"##################################################",
"##################################################"
};
